<svg height="20" viewBox="0 0 21 20" width="21" xmlns="http://www.w3.org/2000/svg">
    <path d="m7.37530518 19.0997314c.52526855 0 .93707275-.2211914 1.23541259-.6635742l10.44726563-16.36541745c.1098633-.17541504.1883545-.33511353.2354736-.47909546.0471192-.14398194.0706787-.28488159.0706787-.42269898 0-.3461914-.1074524-.62756347-.3223571-.84411621-.2149048-.21655273-.4966126-.3248291-.8451233-.3248291-.2465821 0-.4507447.04864502-.6124878.14593506-.1617432.09729004-.321228.2645874-.4784546.50189209l-9.77728272 15.56744385-5.05938721-6.55920411c-.28344727-.38916015-.63378906-.58374023-1.05102539-.58374023-.35546875 0-.64733887.11199951-.87561035.33599854-.22827149.22399902-.34240723.50909423-.34240723.8552856 0 .1524659.02999878.3044129.08999634.4558411s.15335083.3061218.28005981.4640808l5.73760987 7.2484131c.36010742.4451904.7826538.6677856 1.26763916.6677856z"
          fill="currentColor" transform="translate(.905869 .733521)"/>
</svg>