<svg height="24" viewBox="0 0 25 24" width="25" xmlns="http://www.w3.org/2000/svg">
    <path d="m12.1713228 7.24420791-1.58844 1.59576416c.6910401.06323242 1.2814942.20056152 1.7713623.4119873.4898682.21142579.9119263.49432373 1.2661744.84869383.6315918.6308594 1.0533142 1.3303223 1.2651672 2.0983887s.2120667 1.5343628.0006409 2.2988892c-.2114258.7645263-.6325684 1.4621582-1.2634278 2.0928955l-3.65386959 3.6421508c-.63085938.6379395-1.32836914 1.062439-2.0925293 1.2734986-.76416016.2110595-1.52850342.2108764-2.29302978-.0005493-.76452637-.2114258-1.46215821-.6329346-2.09289551-1.2645264-.63867188-.6386719-1.06393433-1.3400574-1.27578736-2.1041565-.21185302-.7640991-.21203613-1.5284119-.00054931-2.2929382.21148681-.7645264.63259888-1.4622193 1.26333618-2.0930786l2.02331543-2.0337525c-.16052246-.3786621-.2649231-.7848816-.3132019-1.2186584-.04827881-.4337769-.03524781-.84848026.03909301-1.24411014l-3.2076416 3.20434574c-.89489746.9003906-1.49249267 1.8927307-1.79278564 2.9770202-.30029297 1.0842896-.30166626 2.1705017-.00411988 3.2586365.29754639 1.0881348.90042115 2.0863647 1.80862427 2.9946899.90893555.9089356 1.90731812 1.5137329 2.99514771 1.8143921s2.17544555.2988892 3.2628479-.00531c1.08740234-.3041992 2.07818607-.9033203 2.97235107-1.7973633l3.8201294-3.8285523c.894165-.894165 1.4931335-1.8851318 1.7969055-2.9729003.303772-1.0877686.3053589-2.1755677.0047608-3.2633973-.3005982-1.0878296-.9050599-2.08584591-1.8133851-2.99404904-.3387451-.33093261-.7375793-.61618042-1.1965026-.85574341-.4589234-.23956298-1.0261536-.4203186-1.7016907-.54226684zm-.6557007 9.23968509 1.5780029-1.5968628c-.69104-.0625-1.2814941-.1994629-1.7713623-.4108887-.4898681-.2114258-.9084472-.4943237-1.2557373-.8486938-.63781736-.6315918-1.06283567-1.3312378-1.27505491-2.098938s-.21261597-1.53381351-.00119018-2.29833988c.21142578-.76452636.63256835-1.4621582 1.26342769-2.0928955l3.6538697-3.64215088c.6308593-.63793946 1.3283691-1.06243897 2.0925293-1.27349854.7641601-.21105957 1.5285034-.21087646 2.2930298.00054932.7645263.21142578 1.4656982.63293457 2.1035156 1.26452636.6386719.63793946 1.0639038 1.34091187 1.2756958 2.10891724s.2102051 1.53250122-.0047608 2.29348755c-.2149658.76098633-.6378784 1.45690918-1.2687378 2.08776855l-2.0231323 2.03375248c.1605225.3786621.2651062.7848816.3137512 1.2186584.0486451.4337769.0354309.8484802-.0396423 1.2441101l3.2076416-3.2043457c.9019775-.9003906 1.5030823-1.8927307 1.8033142-2.97702025s.2998352-2.1705017-.0011902-3.25863647-.9056396-2.08636475-1.8138427-2.99468994c-.9090577-.90893555-1.9074707-1.51373291-2.9952393-1.81439209s-2.173584-.29907227-3.2574463.00476074-2.072876.90313721-2.967041 1.7979126l-3.83074952 3.82855224c-.89416504.89416504-1.49139404 1.88516236-1.79168701 2.97299195s-.30187988 2.17562862-.00476074 3.26339722c.29711914 1.0877685.90020752 2.0857544 1.80926513 2.9939575.33789063.3309326.73809815.6159973 1.20062256.8551941.46252438.2391968 1.03149418.4201355 1.70690918.5428162z"
          fill="currentColor" transform="translate(.755505 .04754)"/>
</svg>