<svg height="23" viewBox="0 0 27 23" width="27" xmlns="http://www.w3.org/2000/svg">
    <path d="m2.66894531 18.659729h21.34588619c.8330079 0 1.4859009-.2346191 1.9586792-.7038574.4727784-.4692383.7091675-1.1203613.7091675-1.9533692v-13.33355709c0-.83312988-.2363891-1.48623657-.7091675-1.95932007-.4727783-.47308349-1.1256713-.70962524-1.9586792-.70962524h-21.34588619c-.83312988 0-1.48623657.23654175-1.95932007.70962524-.47308349.4730835-.70962524 1.12619019-.70962524 1.95932007v13.33355709c0 .8330079.23654175 1.4841309.70962524 1.9533692.4730835.4692383 1.12619019.7038574 1.95932007.7038574zm-.23071289-5.005188c-.30871582 0-.46307373-.1582641-.46307373-.4747925v-10.42364498c0-.2454834.06878662-.43704224.20635986-.57467652.13757325-.13763428.32873536-.20645141.57348633-.20645141h21.17248532c.244751 0 .4377137.06881713.578888.20645141s.2117614.32919312.2117614.57467652v10.42364498c0 .3165284-.1578979.4747925-.4736938.4747925zm7.34454346 7.5981445h7.12774662v-2.7766113h-7.12774662zm-.0635376 1.3829957h7.24420162c.2595215 0 .4826355-.0921631.6693421-.2764893.1867065-.1843262.2800598-.4082642.2800598-.671814 0-.2628174-.0933533-.4883423-.2800598-.6765747-.1867066-.1882324-.4098206-.2823486-.6693421-.2823486h-7.24420162c-.25878906 0-.48171997.0941162-.66879272.2823486-.18707276.1882324-.28060913.4137573-.28060913.6765747 0 .2635498.09353637.4874878.28060913.671814.18707275.1843262.41000366.2764893.66879272.2764893z"
          fill="currentColor" transform="translate(.252447 .035034)"/>
</svg>