<svg height="22" viewBox="0 0 23 22" width="23" xmlns="http://www.w3.org/2000/svg">
    <path d="m17.0939941 14.7672729c-1.4833984 0-2.8232116-.2212219-4.0194397-.6636657-1.196228-.4424439-2.2185669-1.0832215-3.0670166-1.9223328-.84844967-.8391113-1.49835201-1.8515625-1.94970699-3.0373535-.45135498-1.18579102-.67703247-2.51849365-.67703247-3.99810791 0-.4185791.02911377-.87207031.08734131-1.36047363s.14007568-.95968628.24554443-1.41384888.2253418-.83169556.35961914-1.13259888c.05993653-.13330078.09805298-.24783325.11434937-.34359741.01629638-.09576416.02444458-.17349243.02444458-.23318481 0-.15966797-.05770874-.30993653-.17312622-.45080567s-.28274536-.21130371-.50198365-.21130371c-.07080078 0-.16744995.00894165-.28994751.02682495-.12249755.0178833-.24923706.0517273-.3802185.10153198-1.37097168.54919434-2.57089233 1.3670044-3.59976196 2.45343018s-1.83059693 2.3416748-2.40518189 3.76574707-.86187744 2.90802002-.86187744 4.45184322c0 1.6304932.28988647 3.1254273.86965942 4.4848023s1.38748169 2.5392761 2.42312622 3.5397034c1.03564454 1.0004272 2.24746705 1.7762146 3.63546753 2.327362 1.38800049.5511475 2.89376831.8267212 4.51730343.8267212 1.1877442 0 2.3221436-.1668396 3.4031983-.5005188s2.0760803-.7987976 2.9850769-1.3953552 1.6954651-1.2889099 2.3594055-2.0770569 1.1723023-1.6398621 1.5250855-2.5551453c.0592041-.1418457.0963745-.2735595.1115112-.3951416.0151367-.121582.0227051-.2150268.0227051-.2803344 0-.2091065-.0689392-.3780518-.2068177-.506836-.1378784-.1287842-.2898254-.1931762-.455841-.1931762-.1484375 0-.3331299.0399169-.5540772.1197509-.4143066.1436768-.9403381.275116-1.5780945.3943177-.6377563.1192016-1.2923278.1788024-1.9637146.1788024z"
          fill="currentColor" transform="translate(.161651 .001709)"/>
</svg>