<svg viewBox="0 0 21 26" version="1.1" xmlns="http://www.w3.org/2000/svg">
    <g stroke="none" stroke-width="1" fill="none" fill-rule="evenodd">
        <g transform="translate(0.159692, 0.524841)" fill="currentColor">
            <path d="M3.56414795,25.2039185 L16.303894,25.2039185 C17.4876099,25.2039185 18.3775635,24.9077454 18.9737549,24.3153992 C19.5699463,23.723053 19.868042,22.8456421 19.868042,21.6831665 L19.868042,10.7010498 C19.868042,9.53771973 19.5699463,8.65991211 18.9737549,8.06762695 C18.3775635,7.4753418 17.4876099,7.17919922 16.303894,7.17919922 L13.2670898,7.17919922 L13.2670898,9.16864014 L16.2249756,9.16864014 C16.7515869,9.16864014 17.158844,9.30831909 17.4467468,9.587677 C17.7346497,9.86703491 17.8786011,10.2856445 17.8786011,10.8435059 L17.8786011,21.5396118 C17.8786011,22.0903931 17.7346497,22.5056458 17.4467468,22.7853699 C17.158844,23.065094 16.7515869,23.2049561 16.2249756,23.2049561 L3.64306641,23.2049561 C3.11657715,23.2049561 2.71112061,23.065094 2.42669678,22.7853699 C2.14227295,22.5056458 2.00006104,22.0903931 2.00006104,21.5396118 L2.00006104,10.8435059 C2.00006104,10.2856445 2.14227295,9.86703491 2.42669678,9.587677 C2.71112061,9.30831909 3.11657715,9.16864014 3.64306641,9.16864014 L6.62182617,9.16864014 L6.62182617,7.17919922 L3.56414795,7.17919922 C2.38751221,7.17919922 1.49932861,7.47360229 0.899597168,8.06240845 C0.299865723,8.6512146 0,9.53076172 0,10.7010498 L0,21.6831665 C0,22.8456421 0.299865723,23.723053 0.899597168,24.3153992 C1.49932861,24.9077454 2.38751221,25.2039185 3.56414795,25.2039185 Z M9.93988037,16.4377441 C10.1976929,16.4377441 10.4214478,16.3440857 10.611145,16.1567688 C10.8008423,15.9694519 10.8956909,15.7519531 10.8956909,15.5042725 L10.8956909,4.22900391 L10.8175049,2.58233643 L11.534729,3.38104248 L13.1449585,5.09326172 C13.3147583,5.2857666 13.5290527,5.38201904 13.7878418,5.38201904 C14.0343018,5.38201904 14.2404785,5.30270386 14.4063721,5.14407349 C14.5722656,4.98544312 14.6552124,4.78771973 14.6552124,4.55090332 C14.6552124,4.31774902 14.5640259,4.10998535 14.3816528,3.9276123 L10.6452026,0.322265625 C10.5244751,0.202392578 10.4069214,0.118713379 10.2925415,0.0712280273 C10.1781616,0.0237426758 10.0606079,0 9.93988037,0 C9.8114624,0 9.69003296,0.0237426758 9.57559204,0.0712280273 C9.46115112,0.118713379 9.34362793,0.202392578 9.22302246,0.322265625 L5.48657227,3.9276123 C5.30407715,4.10998535 5.21282959,4.31774902 5.21282959,4.55090332 C5.21282959,4.78771973 5.29403687,4.98544312 5.45645142,5.14407349 C5.61886597,5.30270386 5.82293701,5.38201904 6.06866455,5.38201904 C6.33526611,5.38201904 6.5534668,5.2857666 6.7232666,5.09326172 L8.33331299,3.38104248 L9.05053711,2.57171631 L8.97235107,4.22900391 L8.97235107,15.5042725 C8.97235107,15.7519531 9.06723022,15.9694519 9.25698853,16.1567688 C9.44674683,16.3440857 9.67437744,16.4377441 9.93988037,16.4377441 Z"></path>
        </g>
    </g>
</svg>