<svg height="26" viewBox="0 0 25 26" width="25" xmlns="http://www.w3.org/2000/svg">
    <path d="m12.1798096 6.45776367c-.7862549 0-1.5248719.1506958-2.21585086.4520874-.690979.30139161-1.30233765.71618653-1.83407593 1.24438477s-.9465332 1.13955688-1.24438476 1.83407593c-.29785157.69451903-.44677735 1.43490603-.44677735 2.22116093 0 .7862548.14892578 1.5266418.44677735 2.2211608.29785156.6945191.71264648 1.3056946 1.24438476 1.8335267.53173828.527832 1.14309693.9426269 1.83407593 1.2443847.69097896.3017578 1.42959596.4526367 2.21585086.4526367.7792968 0 1.5162048-.1508789 2.2107238-.4526367.6945191-.3017578 1.3056946-.7165527 1.8335267-1.2443847.527832-.5278321.9424438-1.1390076 1.2438354-1.8335267.3013916-.694519.4520874-1.434906.4520874-2.2211608 0-.7862549-.1506958-1.5266419-.4520874-2.22116093-.3013916-.69451905-.7160034-1.30587769-1.2438354-1.83407593-.5278321-.52819824-1.1390076-.94299316-1.8335267-1.24438477-.694519-.3013916-1.431427-.4520874-2.2107238-.4520874zm1.0497436-5.40692138c0-.28601075-.1034546-.53265381-.3103637-.7399292-.2069092-.20727539-.4533692-.31091309-.7393799-.31091309-.2796631 0-.5227356.1036377-.7292176.31091309-.2064819.20727539-.3097229.45391845-.3097229.7399292v2.29467773c0 .27893066.103241.52182007.3097229.72866821.206482.20684815.4495545.31027222.7292176.31027222.2860107 0 .5324707-.10342407.7393799-.31027222.2069091-.20684814.3103637-.44973755.3103637-.72866821zm4.4637451 4.17004394c-.1948242.20104981-.2918396.44747925-.2910509.73928833.0007983.29180908.0989123.53897095.2943468.7414856.2011719.19409179.4476319.29251098.7393799.29525756.2917481.00274659.5420532-.09713745.7509155-.2996521l1.6241456-1.63586425c.1939697-.19470215.2907714-.43972779.2904063-.73507691-.0003673-.29534912-.0983287-.54391479-.2938853-.74569702-.2010499-.19482422-.4474488-.29165649-.7391968-.29050712-.2917481.00116996-.5350342.09910087-.7298584.29380302zm5.6262818 8.02752687c.2797851 0 .5231018-.1034241.7299499-.3102722.2068482-.2068482.3102722-.4497376.3102722-.7286682 0-.2867432-.103424-.5333558-.3102722-.7398377-.2068481-.2064819-.4501648-.3097229-.7299499-.3097229h-2.282959c-.2860107 0-.5324402.103241-.7392883.3097229-.2068482.2064819-.3102723.4530945-.3102723.7398377 0 .2789306.1034241.52182.3102723.7286682.2068481.2068481.4532776.3102722.7392883.3102722zm-4.1466065 4.4805908c-.2010498-.2011719-.4474792-.3013611-.7392883-.3005723-.2918091.0007981-.5386047.1024522-.740387.3049668-.1948242.2010498-.2918396.4455262-.2910509.733429.0007983.2879028.0989123.5331726.2943468.7358093l1.647583 1.6345825c.1939698.2010498.4368592.2996216.7286683.2957154.291809-.0039063.5389709-.1071167.7414856-.3096314.1940918-.1940918.2907714-.4370117.2900431-.7287597-.0007365-.2917481-.098881-.5385743-.2944377-.7404786zm-5.9434204 3.3444214c0-.2789307-.1034546-.5218201-.3103637-.7286682-.2069092-.2068482-.4533692-.3102722-.7393799-.3102722-.2796631 0-.5227356.103424-.7292176.3102722-.2064819.2068481-.3097229.4497375-.3097229.7286682v2.2946777c0 .2860108.103241.5324402.3097229.7392884.206482.2068481.4495545.3102722.7292176.3102722.2860107 0 .5324707-.1034241.7393799-.3102722.2069091-.2068482.3103637-.4532776.3103637-.7392884zm-9.68078611-1.7299805c-.19482422.2019043-.29437256.4487305-.29864502.7404785-.00427246.2917481.09411621.534668.29516602.7287598.19555664.2017822.44100952.3048096.73635864.309082.29534912.0042725.54354858-.0941162.74459839-.295166l1.62634277-1.6135254c.20178223-.2025146.30303955-.4494934.30377611-.7409362.00072829-.2914429-.09589037-.5376893-.28986009-.7387391-.20263672-.1954345-.45159912-.2935485-.74688721-.2943468-.29528809-.0007887-.53991699.0958605-.73388672.2899523zm-2.49920654-8.1835327c-.28601074 0-.53244019.103241-.73928833.3097229-.20684815.2064819-.31027222.4530945-.31027222.7398377 0 .2789306.10342407.52182.31027222.7286682.20684814.2068481.45327759.3102722.73928833.3102722h2.28405761c.27893067 0 .5220337-.1034241.72930909-.3102722.20727539-.2068482.31091308-.4497376.31091308-.7286682 0-.2867432-.10363769-.5333558-.31091308-.7398377s-.45037842-.3097229-.72930909-.3097229zm4.13378906-4.46264648c.19482422.19543458.43792725.29354859.72930908.29434689.29138184.00078861.5380249-.09586056.7399292-.28995235.20178223-.19543457.30303955-.44082642.30377611-.73617554.00072829-.29534912-.09589037-.54354858-.28986009-.74459839l-1.62414551-1.63696289c-.19470215-.19470215-.43969727-.29263306-.73498535-.29380302-.29528809-.00114937-.53997803.0956829-.73406983.29050712-.20251465.20178223-.3041687.4503479-.304967.74569702-.00078861.29534912.09586056.54037476.28995235.73507691z"
          fill="currentColor" transform="translate(.413294 .786621)"/>
</svg>