<svg height="360" viewBox="0 0 800 360" width="800" xmlns="http://www.w3.org/2000/svg">
    <g fill="none" fill-rule="evenodd">
        <path d="m0 0h800v360h-800z" fill="var(--diagram-background)"/>
        <g stroke="var(--diagram-border)" stroke-linecap="square">
            <path d="m0 100.14 799.666944.5"/>
            <path d="m0 166.14 799.666944.5"/>
            <path d="m0 261.14 799.666944.5"/>
        </g>
        <g fill-rule="nonzero" transform="translate(120.52 98)">
            <path d="m6.96 165.84c-2.08 0-3.76-.28-5.04-.84s-1.92-1.32-1.92-2.28c0-1.12.68-2.12 2.04-3s3.32-1.72 5.88-2.52c4.16-1.28 8-3.2 11.52-5.76s6.56-6.8 9.12-12.72c4.48-10.24 8.6-19.84 12.36-28.8s7.32-17.76 10.68-26.4 6.84-17.64 10.44-27 7.4-19.56 11.4-30.6c.8-2.24 1.52-4.48 2.16-6.72s1.04-4.64 1.2-7.2c1.44-.48 2.88-.96 4.32-1.44s2.88-1.2 4.32-2.16 2.44-2.4 3-4.32 1.08-3.2 1.56-3.84c.16-.16.36-.24.6-.24s.44.16.6.48c.32.64.6 1.44.84 2.4s.52 1.92.84 2.88c3.84 12.16 7.84 24.56 12 37.2s8.2 24.84 12.12 36.6 7.52 22.32 10.8 31.68 5.88 16.92 7.8 22.68c2.24 6.4 4.64 11.2 7.2 14.4s5.24 5.44 8.04 6.72 5.8 2.24 9 2.88c2.72.48 4.72 1.24 6 2.28s1.92 2.12 1.92 3.24c0 .96-.64 1.6-1.92 1.92s-2.96.48-5.04.48c-2.24 0-5.28-.12-9.12-.36s-7.92-.48-12.24-.72-8.32-.36-12-.36c-3.04 0-6.16 0-9.36 0s-6.16.04-8.88.12-5.04.12-6.96.12c-2.08 0-3.76-.24-5.04-.72s-1.92-1.2-1.92-2.16c0-1.12.8-2.08 2.4-2.88s3.44-1.36 5.52-1.68c5.28-.8 9.04-2.16 11.28-4.08s3.36-4.16 3.36-6.72c0-2.4-.52-5.88-1.56-10.44s-2.28-9.44-3.72-14.64-2.8-9.8-4.08-13.8c-.32-1.28-.92-2.04-1.8-2.28s-2.44-.36-4.68-.36h-45.36c-.64 0-1.32.28-2.04.84s-1.4 1.72-2.04 3.48c-.48 1.6-1.28 4.12-2.4 7.56s-2.24 7.08-3.36 10.92-2.08 7.28-2.88 10.32-1.2 4.96-1.2 5.76c0 3.52 1.36 6.44 4.08 8.76s6 3.96 9.84 4.92c5.28 1.44 7.92 3.04 7.92 4.8 0 .96-.64 1.64-1.92 2.04s-2.96.6-5.04.6-5.12-.08-9.12-.24-8.24-.24-12.72-.24c-5.28 0-10.4.24-15.36.72s-9.44.72-13.44.72zm56.16-68.88h37.2c2.24 0 3.36-.4 3.36-1.2 0-.32-.04-.68-.12-1.08s-.2-.84-.36-1.32l-18.72-58.56c-.96-2.88-1.68-4.32-2.16-4.32-.32 0-.96 1.36-1.92 4.08l-21.84 58.8c-.32.96-.48 1.6-.48 1.92 0 .8.44 1.28 1.32 1.44s2.12.24 3.72.24z"
                  fill="var(--diagram-text-lighter)"/>
            <path d="m178.56 165.36c-.8 0-1.8-.24-3-.72s-1.8-1.2-1.8-2.16c0-1.28.64-2.2 1.92-2.76s2.56-.92 3.84-1.08c4.16-.8 7.84-2.08 11.04-3.84s4.8-4.8 4.8-9.12v-65.52c0-4.96-1.04-8.8-3.12-11.52s-5.68-4.48-10.8-5.28c-1.44-.32-2.76-.88-3.96-1.68s-1.8-1.76-1.8-2.88c0-.96.6-1.68 1.8-2.16s2.2-.72 3-.72c3.2 0 5.92.08 8.16.24s4.48.36 6.72.6 4.72.36 7.44.36c3.36 0 7.16-.2 11.4-.6s8.84-.6 13.8-.6c12 0 21.84 1.92 29.52 5.76s11.52 10.24 11.52 19.2c0 6.88-1.36 12.08-4.08 15.6s-6.4 6.16-11.04 7.92c-.32.16-.52.44-.6.84s.12.68.6.84c3.36.96 6.8 2.32 10.32 4.08s6.48 4.4 8.88 7.92 3.6 8.48 3.6 14.88c0 7.52-2.24 13.68-6.72 18.48s-10.4 8.32-17.76 10.56-15.52 3.36-24.48 3.36c-1.12 0-3.28-.12-6.48-.36s-6.6-.48-10.2-.72-6.6-.36-9-.36c-4.32 0-8.76.12-13.32.36s-7.96.48-10.2.72-2.24.36 0 .36zm51.6-7.2c8.16 0 14.36-2.4 18.6-7.2s6.36-10.56 6.36-17.28c0-6.4-1.36-11.28-4.08-14.64s-6.52-5.64-11.4-6.84-10.6-1.8-17.16-1.8c-1.6 0-3.12.28-4.56.84s-2.56 1.36-3.36 2.4-1.2 2.36-1.2 3.96v26.4c0 4 1.68 7.36 5.04 10.08s7.28 4.08 11.76 4.08zm-8.88-54.96c4.16 0 8.44-.4 12.84-1.2s8.12-2.64 11.16-5.52 4.56-7.36 4.56-13.44c0-3.2-.52-6.28-1.56-9.24s-3.12-5.4-6.24-7.32-7.8-2.88-14.04-2.88c-4.48 0-8.04.56-10.68 1.68s-3.96 3.04-3.96 5.76v26.16c0 2.4.76 4 2.28 4.8s3.4 1.2 5.64 1.2z"
                  fill="var(--diagram-text-lighter)"/>
            <g fill="var(--diagram-text)">
                <path d="m343.92 165.36c-.8 0-1.8-.12-3-.36s-1.8-.84-1.8-1.8c0-1.28.6-2.2 1.8-2.76s2.44-1.08 3.72-1.56c3.84-1.12 6.72-2.24 8.64-3.36s3.48-2.52 4.68-4.2 2.36-4.04 3.48-7.08l21.36-55.2c.8-2.56 1.4-4.92 1.8-7.08s.76-4.44 1.08-6.84c1.12-.32 2.6-1.44 4.44-3.36s3.08-3.28 3.72-4.08c1.44-1.76 2.52-2.76 3.24-3s1.32.36 1.8 1.8l26.16 72.48c1.76 4.96 3.72 9.2 5.88 12.72s5.56 5.92 10.2 7.2c1.28.32 2.52.8 3.72 1.44s1.8 1.6 1.8 2.88c0 .96-.6 1.56-1.8 1.8s-2.2.36-3 .36c-3.2 0-5.68-.12-7.44-.36s-3.44-.44-5.04-.6-3.84-.24-6.72-.24c-2.56 0-4.48.08-5.76.24s-2.64.36-4.08.6-3.84.36-7.2.36c-.8 0-1.8-.12-3-.36s-1.8-.84-1.8-1.8c0-1.28.6-2.24 1.8-2.88s2.44-1.12 3.72-1.44c2.24-.64 3.8-1.6 4.68-2.88s.76-3.68-.36-7.2l-4.32-13.44h-32.16l-3.36 9.12c-1.12 3.36-1.16 5.96-.12 7.8s2.68 3.24 4.92 4.2 4.4 1.76 6.48 2.4c1.28.48 2.52 1 3.72 1.56s1.8 1.48 1.8 2.76c0 .96-.6 1.56-1.8 1.8s-2.2.36-3 .36c-3.2 0-5.76-.12-7.68-.36s-3.68-.44-5.28-.6-3.76-.24-6.48-.24c-2.56 0-4.68.08-6.36.24s-3.44.36-5.28.6-4.44.36-7.8.36zm33.6-39.36h25.92l-10.8-33.6c-.64-1.76-1.12-2.64-1.44-2.64s-.8.88-1.44 2.64z"/>
                <path d="m462.96 165.36c-.96 0-2.12-.08-3.48-.24s-2.04-.8-2.04-1.92c0-1.28.6-2.2 1.8-2.76s2.44-1.08 3.72-1.56c2.4-.8 4.72-1.56 6.96-2.28s3.36-2.76 3.36-6.12v-65.04c0-3.68-.88-6.36-2.64-8.04s-3.84-2.84-6.24-3.48c-1.28-.48-2.52-1.04-3.72-1.68s-1.8-1.52-1.8-2.64c0-1.28.76-1.96 2.28-2.04s2.6-.12 3.24-.12c3.2 0 5.52.04 6.96.12s2.8.2 4.08.36 3.12.24 5.52.24c2.24 0 4.24-.08 6-.24s3.76-.32 6-.48 4.96-.24 8.16-.24c12.16 0 22 1.8 29.52 5.4s11.28 9.4 11.28 17.4c0 6.4-1.76 11.48-5.28 15.24s-7.84 6.28-12.96 7.56c-.64.16-1.04.32-1.2.48s.24.4 1.2.72c3.04.48 6.32 1.6 9.84 3.36s6.52 4.2 9 7.32 3.72 7 3.72 11.64c0 7.52-2 13.4-6 17.64s-9.4 7.2-16.2 8.88-14.52 2.52-23.16 2.52c-1.6 0-4.32-.24-8.16-.72s-7.6-.72-11.28-.72c-3.52 0-7.24.12-11.16.36s-6.76.48-8.52.72-1.36.36 1.2.36zm40.32-7.92c8 0 14.2-1.64 18.6-4.92s6.6-8.2 6.6-14.76c0-8.16-2.72-13.6-8.16-16.32s-12.4-4.08-20.88-4.08c-2.56 0-4.76.4-6.6 1.2s-2.76 2.4-2.76 4.8v22.08c0 4 1.08 7 3.24 9s5.48 3 9.96 3zm-6.24-47.28c10.08 0 17.32-1.8 21.72-5.4s6.6-7.8 6.6-12.6c0-4.64-1.64-8.6-4.92-11.88s-9.72-4.92-19.32-4.92c-4.48 0-7.44.68-8.88 2.04s-2.16 3.32-2.16 5.88v20.88c0 3.04.92 4.8 2.76 5.28s3.24.72 4.2.72z"/>
            </g>
        </g>
    </g>
</svg>