<svg height="360" viewBox="0 0 800 360" width="800" xmlns="http://www.w3.org/2000/svg">
    <g fill="none" fill-rule="evenodd">
        <path d="m0 0h800v360h-800z" fill="var(--diagram-background)"/>
        <g fill-rule="nonzero">
            <path d="m108.725106 91.8c0 6.16-2.66 12.34-7.98 18.54-5.3199996 6.2-12.2599996 11.02-20.8199996 14.46s-18 5.16-28.32 5.16c4.08 8.48 9.76 17 17.04 25.56s12.96 12.84 17.04 12.84c3.84 0 5.76-1.92 5.76-5.76 0-1.92-1.12-3.88-3.36-5.88l-1.2-1.56c0-1.12.38-2.08 1.14-2.88s1.66-1.2 2.7-1.2c1.92 0 3.96 1.42 6.12 4.26s3.2399996 5.58 3.2399996 8.22c0 10.4-6.7999996 15.6-20.3999996 15.6-8.4 0-17.04-4.36-25.92-13.08s-16-19.64-21.36-32.76l-13.44 38.88c-.32 1.12-1.6 2.08-3.84 2.88s-4.48 1.2-6.72000002 1.2c-2.08 0-4.02-.34-5.82-1.02s-2.66-1.7-2.58-3.06l44.40000002-135.24c1.44-4.32 2.16-7.92 2.16-10.8 0-3.12-3.52-5.08-10.56-5.88-1.44-.16-2.16-1.16-2.16-3 0-1.92.56-2.88 1.68-2.88 5.12-.96 11.2-2.76 18.24-5.4s12.4-5.12 16.08-7.44c1.6-1.04 2.96-1.56 4.08-1.56 1.6 0 2.4.88 2.4 2.64 0 1.92-.4 4-1.2 6.24l-29.28 85.32c8.16-9.76 15.34-16.52 21.54-20.28s12.86-5.64 19.98-5.64c6.4 0 11.56 2.2 15.4799996 6.6 3.92 4.4 5.88 10.04 5.88 16.92zm-20.8799996 3.12c0-7.68-3.44-11.52-10.32-11.52-4.4 0-9.5 1.94-15.3 5.82s-11.1 8.76-15.9 14.64-7.2 10.34-7.2 13.38c0 3.52 2.64 5.28 7.92 5.28 27.2 0 40.8-9.2 40.8-27.6z"
                  fill="var(--diagram-text-lighter)" transform="translate(177 74.12)"/>
            <path d="m171.191111 211.68c0 6.24-2.48 11.2-7.44 14.88-5.36 4-12.96 6-22.8 6-13.76 0-28.68-6.08-44.7599999-18.24-13.52-10.24-26.64-23.72-39.36-40.44-11.2-14.72-19.32-28.2-24.36-40.44l-13.44 38.88c-.32 1.2-1.64 2.18-3.96 2.94s-4.52 1.14-6.59999999 1.14c-2.24 0-4.28-.36-6.12-1.08-1.84-.72-2.6-1.72-2.28-3l44.39999999-135.36c.72-2.24 1.26-4.26 1.62-6.06s.54-3.38.54-4.74c0-3.12-3.52-5.04-10.56-5.76-1.44 0-2.16-1.04-2.16-3.12 0-1.68.56-2.64 1.68-2.88 5.44-.96 11.56-2.72 18.36-5.28s12.12-5.04 15.96-7.44c.64-.48 1.28-.88 1.92-1.2s1.36-.48 2.16-.48c1.6 0 2.4.96 2.4 2.88 0 .88-.1 1.82-.3 2.82s-.5 2.06-.9 3.18l-29.28 85.44c7.44-8.8 13.92-15.04 19.44-18.72 6.88-4.64 14.24-6.96 22.08-6.96 6.64 0 11.92 2.24 15.8399999 6.72 3.68 4.24 5.52 9.76 5.52 16.56 0 8.88-4.84 17.16-14.5199999 24.84-11.2 8.88-25.4 13.32-42.6 13.32 5.04 10.32 12.4 22 22.08 35.04 11.76 15.84 23.44 28.48 35.0399999 37.92 14.48 11.84 27.68 17.76 39.6 17.76 4.8 0 8.56-.86 11.28-2.58s4.08-4.22 4.08-7.5c0-1.84-1-3.72-3-5.64l-1.56-1.8c0-1.12.36-2.08 1.08-2.88s1.56-1.2 2.52-1.2c1.92 0 3.8 1.4 5.64 4.2s2.76 5.56 2.76 8.28zm-83.2799999-116.64c0-3.6-.9-6.42-2.7-8.46s-4.34-3.06-7.62-3.06c-7.2 0-15.52 4.56-24.96 13.68-8.96 8.64-13.44 15.36-13.44 20.16 0 1.68.62 2.98 1.86 3.9s3.26 1.38 6.06 1.38c15.68 0 26.84-3.04 33.48-9.12 4.88-4.48 7.32-10.64 7.32-18.48z"
                  fill="var(--diagram-text)" transform="translate(452.293995 74)"/>
        </g>
    </g>
</svg>