<svg height="360" viewBox="0 0 800 360" width="800" xmlns="http://www.w3.org/2000/svg">
    <g fill="none" fill-rule="evenodd">
        <path d="m0 0h800v360h-800z" fill="var(--diagram-background)"/>
        <g fill-rule="nonzero">
            <g fill="var(--diagram-text-lighter)" transform="translate(147 93)">
                <path d="m93.84 11.28c0 3.28-1.24 5.86-3.72 7.74s-5.88 2.82-10.2 2.82c-3.84 0-7.72-1.48-11.64-4.44-3.28-2.48-6.2-3.72-8.76-3.72-5.44 0-10.08 3.02-13.92 9.06s-5.76 14.22-5.76 24.54v27.96h26.88c1.92 0 2.88 2.16 2.88 6.48s-.96 6.48-2.88 6.48l-27.12-.96v60.24c0 7.84.96 12.96 2.88 15.36s6.32 4.04 13.2 4.92c1.28.16 1.92 1.24 1.92 3.24 0 2.24-.64 3.36-1.92 3.36-3.28 0-7.44-.24-12.48-.72-5.68-.48-10.48-.72-14.4-.72-4 0-8.8.24-14.4.72-5.04.48-9.2.72-12.48.72-1.28 0-1.92-1.12-1.92-3.36 0-2 .64-3.08 1.92-3.24 6.8-.88 11.18-2.52 13.14-4.92s2.94-7.52 2.94-15.36v-57.36c0-2.24-.96-3.36-2.88-3.36h-12.24c-1.6 0-2.4-1.04-2.4-3.12s.72-3.28 2.16-3.6c10.24-2.32 15.36-4.56 15.36-6.72 0-19.36 5.9-36.42 17.7-51.18s25.42-22.14 40.86-22.14c5.36 0 9.58 1 12.66 3s4.62 4.76 4.62 8.28z"/>
                <path d="m174.24 11.28c0 3.28-1.24 5.86-3.72 7.74s-5.88 2.82-10.2 2.82c-3.84 0-7.72-1.48-11.64-4.44-3.28-2.48-6.2-3.72-8.76-3.72-5.44 0-10.08 3.02-13.92 9.06s-5.76 14.22-5.76 24.54v27.96h26.88c1.92 0 2.88 2.16 2.88 6.48s-.96 6.48-2.88 6.48l-27.12-.96v60.24c0 7.84.96 12.96 2.88 15.36s6.32 4.04 13.2 4.92c1.28.16 1.92 1.24 1.92 3.24 0 2.24-.64 3.36-1.92 3.36-3.28 0-7.44-.24-12.48-.72-5.68-.48-10.48-.72-14.4-.72-4 0-8.8.24-14.4.72-5.04.48-9.2.72-12.48.72-1.28 0-1.92-1.12-1.92-3.36 0-2 .64-3.08 1.92-3.24 6.8-.88 11.18-2.52 13.14-4.92s2.94-7.52 2.94-15.36v-57.36c0-2.24-.96-3.36-2.88-3.36h-12.24c-1.6 0-2.4-1.04-2.4-3.12s.72-3.28 2.16-3.6c10.24-2.32 15.36-4.56 15.36-6.72 0-19.36 5.9-36.42 17.7-51.18s25.42-22.14 40.86-22.14c5.36 0 9.58 1 12.66 3s4.62 4.76 4.62 8.28z"/>
                <path d="m198.12 25.92c0 3.36-1.22 6.28-3.66 8.76s-5.38 3.72-8.82 3.72-6.38-1.24-8.82-3.72-3.66-5.4-3.66-8.76c0-3.52 1.2-6.48 3.6-8.88s5.36-3.6 8.88-3.6c3.44 0 6.38 1.2 8.82 3.6s3.66 5.36 3.66 8.88zm16.8 145.08c0 2.24-.64 3.36-1.92 3.36-3.28 0-7.48-.24-12.6-.72-5.76-.48-10.6-.72-14.52-.72-4 0-8.8.24-14.4.72-5.04.48-9.2.72-12.48.72-1.28 0-1.92-1.12-1.92-3.36 0-2 .64-3.08 1.92-3.24 6.8-.88 11.18-2.52 13.14-4.92s2.94-7.52 2.94-15.36v-44.4c0-6.4-.82-10.6-2.46-12.6s-5.22-3.32-10.74-3.96c-1.28 0-1.92-1.04-1.92-3.12 0-1.92.64-2.88 1.92-2.88 8.4-2.16 15.28-4.46 20.64-6.9s8.72-4.46 10.08-6.06c.8-.96 1.68-1.44 2.64-1.44 2.24 0 3.36.64 3.36 1.92-1.28 17.92-1.92 31.84-1.92 41.76v37.68c0 7.84.98 12.96 2.94 15.36s6.42 4.04 13.38 4.92c1.28.16 1.92 1.24 1.92 3.24z"/>
            </g>
            <path d="m197.28 171.12c0 2.24-.64 3.36-1.92 3.36-3.2 0-7.52-.2-12.96-.6s-10.16-.6-14.16-.6c-3.84 0-8.48.2-13.92.6s-9.76.6-12.96.6c-1.28 0-1.92-1.12-1.92-3.36 0-1.92.64-2.96 1.92-3.12 6.88-.88 11.32-2.56 13.32-5.04s3-7.6 3-15.36v-47.76c0-4.72-.98-7.98-2.94-9.78s-5.46-2.7-10.5-2.7h-37.2v60.24c0 7.76 1 12.88 3 15.36s6.44 4.16 13.32 5.04c1.28.16 1.92 1.2 1.92 3.12 0 2.24-.64 3.36-1.92 3.36-3.2 0-7.52-.2-12.96-.6s-10.16-.6-14.16-.6c-3.84 0-8.48.2-13.92.6s-9.76.6-12.96.6c-1.28 0-1.92-1.12-1.92-3.36 0-1.92.64-2.96 1.92-3.12 6.88-.88 11.32-2.56 13.32-5.04s3-7.6 3-15.36v-60.24h-45.84v60.24c0 7.76.96 12.88 2.88 15.36s6.32 4.16 13.2 5.04c1.28.16 1.92 1.2 1.92 3.12 0 2.24-.64 3.36-1.92 3.36-3.2 0-7.52-.2-12.96-.6s-10.16-.6-14.16-.6c-3.84 0-8.48.2-13.92.6s-9.76.6-12.96.6c-1.28 0-1.92-1.12-1.92-3.36 0-1.92.64-2.96 1.92-3.12 6.88-.88 11.32-2.56 13.32-5.04s3-7.6 3-15.36v-57.12c0-2.4-.96-3.6-2.88-3.6h-12.24c-1.76 0-2.64-1.04-2.64-3.12 0-2.16.72-3.36 2.16-3.6 10.32-2.24 15.48-4.4 15.48-6.48.08-17.36 6.46-33.02 19.14-46.98s27.78-20.94 45.3-20.94c4.4 0 8.72.82 12.96 2.46s7.56 3.74 9.96 6.3l3.24 3.24c11.84-11.84 25.52-17.76 41.04-17.76 6.96 0 13.22 1.7 18.78 5.1s8.34 7.14 8.34 11.22c0 6.24-4 9.36-12 9.36-2.88 0-6.8-1.84-11.76-5.52s-10.96-5.52-18-5.52c-18.4 0-27.6 11.92-27.6 35.76v24.96h36.72c7.04 0 12.86-.48 17.46-1.44s8.74-2.84 12.42-5.64c1.6-1.2 2.76-1.8 3.48-1.8 2.24 0 3.36.64 3.36 1.92 0 3.04-.32 9.64-.96 19.8s-.96 17.48-.96 21.96v37.44c0 7.76 1 12.88 3 15.36s6.44 4.16 13.32 5.04c1.28.16 1.92 1.2 1.92 3.12zm-100.08-139.68c-6.88-7.36-16.72-11.04-29.52-11.04-18.56 0-27.84 11.92-27.84 35.76v19.2h45.84v-1.68c0-16.16 3.84-30.24 11.52-42.24z"
                  fill="var(--diagram-text)" transform="translate(464 93)"/>
        </g>
    </g>
</svg>