<svg height="360" viewBox="0 0 800 360" width="800" xmlns="http://www.w3.org/2000/svg">
    <g fill="none" fill-rule="evenodd">
        <path d="m0 0h800v360h-800z" fill="var(--diagram-background)"/>
        <path d="m238.157985 169.117708c-6.941739 13.001845-17.769945 22.289595-30.072892 30.01893-14.149209 8.891244-29.516244 14.899046-45.700621 18.931851-.489901.121712-.998693.163119-2.215261.353843 6.264189-5.956356 8.468116-13.226448 10.975554-20.28574 5.980827-16.831379 12.01077-33.651466 17.625116-50.607067 2.727831-8.238769 5.992161-16.271756 8.756515-24.489193 1.159895-3.444323 1.677502-3.524627 5.31587-2.734127 6.990855 1.515753 13.883478 3.338922 20.373097 6.349096 8.620501 4.001437 15.907312 9.482238 18.56084 19.187823 2.250524 8.232495.253136 16.022058-3.618218 23.274584m3.040159-52.738909c-9.887444-6.559896-21.162732-10.578899-33.037488-12.438457-2.202667-.343805-3.988477-1.002555-4.882642-3.307553-.746816-1.9235505-2.426838-2.4668625-4.39274-2.2460243-1.695135.1919786-3.304631.727762-4.727738 1.6211523-1.988571 1.245979-4.027518 1.263546-6.317083 1.130541-6.886326-.400269-13.833102-1.2246478-20.614899.855748-2.162367.663769-4.293249 1.746629-4.666027 4.177103-.371519 2.421691 1.361397 3.939953 3.169876 5.372892 3.618218 2.863367 7.958064 3.653867 12.273982 4.476991 2.609449.496886 3.730303 1.297424 2.317271 4.13946-1.953309 3.926151-3.653481 7.989071-5.260458 12.072067-7.077753 17.999563-13.441433 36.252589-18.825311 54.823069-2.198889 7.586292-5.344836 15.023267-4.723959 23.220628.298475 3.921132 1.441998 7.169711 6.004756 8.740673-5.885114 1.45176-11.183353 2.71656-16.457664 4.076723-3.259293.84069-6.398944 2.0026-9.099069 4.109346-1.686318 1.313736-3.540135 2.678917-2.785763 5.123194.74052 2.401614 2.93563 3.022722 5.211342 3.384093 5.959417.947346 11.898685.703922 17.865658-.011293 27.011324-3.236031 52.258247-11.356852 74.432266-27.43412 14.289001-10.360571 26.284658-22.812831 32.009829-40.030677 7.561357-22.742564.871496-39.669306-17.494139-51.855556"
              fill="var(--diagram-text-lighter)"/>
        <path d="m321.761276 146.030459c1.533979-1.011339 3.297618-1.801254 5.066251-2.301325 2.393956-.677958 5.177336-1.317353 6.832386 1.186737 1.571424 2.377206 1.25689 5.1587-.063655 7.678962-1.070915 2.047557-2.837051 3.561455-4.520809 5.081574-8.78949 7.940193-19.522353 12.185826-30.640896 15.795797 6.008606-10.759005 12.943342-20.590017 23.326723-27.441745m44.138417 40.418729c-8.863131 8.195205-18.072001 15.908998-28.21948 22.447248-9.854164 6.349169-20.198852 11.669584-32.234787 12.315199-9.756808.521219-15.070193-3.103679-16.587947-12.399788-.549187-3.357446-.218427-6.586765.124815-9.88077.948596-9.077172.984793-8.884358 9.665693-11.342422 13.842012-3.92096 27.409429-8.594515 38.944855-17.588342 7.05955-5.503277 12.459058-12.107457 13.556184-21.455812.856233-7.292091-4.885269-17.121858-11.287043-19.542603-10.026409-3.79532-19.005618-1.395722-27.464348 4.229462-11.522944 7.664034-20.472197 17.80106-27.50304 29.586331-5.187322 8.695277-10.070094 17.563463-12.27558 27.633315-1.603876 7.324433-2.837051 14.622743-1.680013 22.137502 1.54022 9.992726 6.591493 17.605758 15.704255 22.131282 9.404829 4.672312 19.249008 3.978182 28.887241.91431 16.710266-5.31295 30.283924-15.774649 43.114932-27.241467 5.475645-4.894981 10.545641-10.244006 15.801611-15.386534 2.562457-7.190086 4.928954-14.442369 6.954706-21.802877-5.680342 4.556623-10.167451 10.313667-15.502054 15.245966"
              fill="var(--diagram-text-lighter)"/>
        <path d="m379.883202 171.673532c2.521643-6.91324 4.976695-13.851405 7.605133-20.724763.732495-1.918059-.536493-2.118714-1.662248-2.532486-4.701538-1.723636-9.408102-3.39742-13.506556-6.408487-3.13729-2.304413-5.994398-4.810727-5.249339-9.105485.619417-3.576888 4.503023-6.069493 9.410614-6.295074 5.608676-.255492 11.070351.701669 16.258124 2.801688 2.135921.864934 3.014161.544634 3.908735-1.689986 4.43392-11.073397 9.130432-22.038365 16.425228-31.6635584 7.917983-10.4477529 17.67914-17.3360662 31.63047-15.8554589 9.538769 1.0132438 16.773257 8.4586543 16.857438 17.0668649.026385 2.8066734-.761393 5.3815334-2.478924 7.5500994-2.333179 2.947506-7.19177 3.18181-10.448421.491044-2.08315-1.721144-3.907478-3.750124-5.900166-5.5859277-3.310677-3.0509483-5.788344-3.2216917-9.46464-.6393532-4.399997 3.0908299-7.043512 7.6036909-9.558873 12.1339999-4.186404 7.541376-7.543568 15.475337-10.854245 23.427992-.961164 2.311891-.655853 3.19552 2.08692 3.527036 6.971896.843747 13.957612 1.165293 20.963431 1.362209 1.790404.051098 2.392231-.193177 1.805481-2.239606-2.030381-7.098938 1.31045-10.591077 8.714556-9.15783 3.68886.714132 7.336258 1.682509 10.957272 2.695752 1.811763.508492 2.692516.317808 3.500396-1.657582 2.785492-6.80855 5.827294-13.516149 8.851506-20.228734.848086-1.884409 1.954996-3.666621 3.608449-5.012628 4.149968-3.383711 8.901763-2.187261 10.876861 2.789225 1.541632 3.882232 1.50017 7.909035.824214 11.955779-.841804 5.033815-2.421129 9.874453-4.148711 14.656516-.693546 1.925537-.540262 2.72317 1.741403 3.052194 6.326094.909801 12.686111 1.272475 19.05618 1.56411 1.045345.047359 2.090689.072285 3.13729.094719 2.679952.05733 5.099824.676742 5.864987 3.618016.745059 2.859017-1.049114 4.712269-3.098342 6.261423-4.657563 3.52205-10.24111 3.939562-15.771888 4.345856-5.534546.407541-11.08794.287896-16.622487-.052345-1.750198-.107182-2.718901.478581-3.476524 1.939247-9.335229 17.98539-15.797017 36.967821-20.060063 56.715483-.173386.803865-.226156 1.650104-.212335 2.47391.065334 3.930838 2.182408 5.637026 6.121297 4.973993 7.265898-1.223869 13.537966-4.713516 19.649211-8.543403 15.583425-9.768518 28.965595-22.103173 41.700706-35.196826.663392-.682974 1.03655-1.941739 2.41736-1.650104 1.162192 1.107963.544031 2.310644.141976 3.46472-2.05174 5.880055-4.332149 11.680346-6.280863 17.59779-.43221 1.31111-.745059 2.973678-2.820671 2.695752-7.616441 7.241017-15.235395 14.478295-23.634588 20.849393-9.248536 7.01419-18.830024 13.483745-29.995862 17.154106-5.935346 1.952956-12.088054 3.104539-17.950527-.073532-7.435516-4.030542-8.950763-11.084613-8.602734-18.663378.456082-9.96668 4.153737-19.21549 7.064871-28.616349 3.376011-10.902654 7.269668-21.633317 11.299019-32.312882.248772-.661787.327927-1.387135.562878-2.425305-6.303478.840008-12.412211 1.346007-18.53602 1.535445-7.850136.243029-15.692734.022433-23.477536-1.06185-2.445-.341487-3.667501.291635-4.563331 2.756821-10.110442 27.802514-19.219515 55.921588-27.367423 84.348499-1.341861 4.678619-2.416103 9.479376-5.619984 13.386534-3.437575 4.191315-7.151564 3.748878-9.332716-1.2301-2.678695-6.118099-1.952482-12.398216-.392004-18.616019 3.079495-12.276078 6.388915-24.493581 10.143109-36.587699.368133-1.183987.603084-2.407856.902113-3.614277-1.023986-.574545-1.027755-1.390874-.675956-2.386669 2.319358-6.57923 3.639859-13.544814 7.676749-19.458519"
              fill="var(--diagram-text)"/>
        <path d="m513.962073 197.342943c2.234932-6.01776 4.464856-12.038024 6.706049-18.05328.726196-1.942909 1.48119-3.874551 2.222411-5.8112 2.442775-5.970189 4.8555-11.951645 7.333333-17.908063 4.477377-10.758608 8.981047-21.505949 13.49849-32.249534 3.426896-8.152206 6.855044-16.304411 10.359568-24.4240682 1.307154-3.028284 3.582152-5.3742965 6.034944-7.5049866 3.74492-3.2548733 8.425131-1.9178715 9.79614 2.8705478.742473 2.5976392 1.106823 5.2954284.939047 8.043293-1.088043 17.631398-7.737749 33.090794-18.27511 47.0542-4.374708 5.79743-6.843776 12.598863-9.639633 19.173707-4.767855 11.216794-9.514426 22.461129-12.768537 34.256289-.972853 3.530286-1.780433 7.09312-2.161061 10.721052-.455751 4.333989 1.5776 5.91761 5.663081 4.3753 6.947697-2.622676 12.541914-7.384806 18.228784-11.956651 11.237264-9.032273 21.204937-19.42283 31.523188-29.44784 2.700699-2.623929 3.381821-5.604641 3.649763-8.933375.326788-4.04731.484548-8.10839.717432-12.163211.103921-1.817722-.126458-3.542804-1.35348-5.00249-.132719-.157736-.232884-.348021-.325536-.533298-2.817142-5.554567 4.082977-18.649172 10.253143-19.46289 3.292925-.434401 6.423083 1.507256 7.807864 5.011252 1.436116 3.636695 2.040863 7.442393 1.759148 11.349493-1.063001 14.762102-2.857207 29.446588-4.611347 44.136081-.557168 4.655721-1.051733 9.317701-1.538786 13.979681-.071367.691034-.296738 1.60991.479541 1.982969.835126.401851 1.319674-.456934 1.756644-.972707 8.435148-9.927363 16.867791-19.858482 24.764552-30.226505 4.168117-5.469439 8.396334-10.893811 12.455522-16.442118 2.580502-3.527781 4.842979-7.28716 7.365886-10.858757 1.260827-1.783921 1.63269-3.303697-.175289-4.927378-1.478686-1.32949-1.263331-2.920623-.562176-4.594379 2.435262-5.814956 12.893744-12.134417 19.211653-11.567318 3.602185.321731 5.154743 1.97045 5.370098 5.63093.359342 6.035287-1.913152 11.228061-5.234875 16.032755-6.928916 10.02501-13.632461 20.227785-20.993339 29.928559-7.741505 10.204028-16.073983 19.968648-24.276248 29.817143-14.470091 17.373512-29.74651 34.067256-43.730801 51.851383-.36435.463193-.667349.976462-1.454897 2.140705 3.821296-.829993 6.917648-1.543561 10.030276-2.169498 5.108417-1.026537 10.229354-2.021777 15.485514-1.248119 1.344716.197796 2.872232.322983 3.356781 1.846515.52211 1.641207-.634796 2.815465-1.74788 3.739348-3.825052 3.173502-8.438904 4.977452-12.920037 6.901583-6.125092 2.630188-12.426724 4.853517-18.660746 7.234582-1.669.638456-3.414375.831245-5.198565.978966-8.957258.739857-11.834498-5.660976-9.981445-12.979433 1.397302-5.512003 4.769107-9.917349 8.236069-14.243826 6.713562-8.377543 13.447156-16.740064 20.179498-25.103836.787548-.977714 1.696546-1.889079 1.434864-3.309956-1.923168-10.484447-.518354-20.997688-.270445-31.500914.017529-.717324.002504-1.434647.002504-2.119423-1.229526-.455682-1.653975.456934-2.152296 1.012767-13.271867 14.797154-27.765747 28.241032-44.111428 39.604296-4.640146 3.22608-9.598315 5.876298-15.27642 6.897827-5.368846.965195-10.765237-2.106904-12.700926-7.208292-2.623072-6.914102-1.488703-13.750588.256673-20.599592 1.108075-4.342752 2.164817-8.698023 3.242843-13.048286"
              fill="var(--diagram-text-lighter)"/>
    </g>
</svg>