<svg height="500" viewBox="0 0 800 500" width="800" xmlns="http://www.w3.org/2000/svg"><g fill="none" fill-rule="evenodd"><path d="m0 0h800v500h-800z" fill="#f1f1f1"/><path d="m314 233h173v81h-173z" fill="#d8d8d8"/><path d="m543.333333 141h36v35h-36z" fill="#d8d8d8"/><g stroke="#e96d00" transform="translate(130 95)"><path d="m.5.5h539v310h-539z"/><path d="m270-269.5v540" transform="matrix(0 -1 1 0 269.5 305.5)"/><path d="m270-259.5v540" transform="matrix(0 -1 1 0 259.5 315.5)"/><path d="m270-269.5v540" transform="matrix(0 -1 1 0 269.5 351.5)"/><path d="m270-259.5v540" transform="matrix(0 -1 1 0 259.5 361.5)"/><path d="m270-269.5v540" transform="matrix(0 -1 1 0 269.5 397.5)"/><path d="m270-259.5v540" transform="matrix(0 -1 1 0 259.5 407.5)"/><path d="m270-269.5v540" transform="matrix(0 -1 1 0 269.5 443.5)"/><path d="m270-259.5v540" transform="matrix(0 -1 1 0 259.5 453.5)"/><path d="m270-269.5v540" transform="matrix(0 -1 1 0 269.5 489.5)"/><path d="m270-259.5v540" transform="matrix(0 -1 1 0 259.5 499.5)"/><path d="m270-269.5v540" transform="matrix(0 -1 1 0 269.5 535.5)"/><path d="m270-259.5v540" transform="matrix(0 -1 1 0 259.5 545.5)"/><path d="m155.5-155v311" transform="matrix(-1 0 0 -1 191 156)"/><path d="m155.5-145v311" transform="matrix(-1 0 0 -1 201 166)"/><path d="m155.5-155v311" transform="matrix(-1 0 0 -1 237 156)"/><path d="m155.5-145v311" transform="matrix(-1 0 0 -1 247 166)"/><path d="m155.5-155v311" transform="matrix(-1 0 0 -1 283 156)"/><path d="m155.5-145v311" transform="matrix(-1 0 0 -1 293 166)"/><path d="m155.5-155v311" transform="matrix(-1 0 0 -1 329 156)"/><path d="m155.5-145v311" transform="matrix(-1 0 0 -1 339 166)"/><path d="m155.5-155v311" transform="matrix(-1 0 0 -1 375 156)"/><path d="m155.5-145v311" transform="matrix(-1 0 0 -1 385 166)"/><path d="m155.5-155v311" transform="matrix(-1 0 0 -1 421 156)"/><path d="m155.5-145v311" transform="matrix(-1 0 0 -1 431 166)"/><path d="m155.5-155v311" transform="matrix(-1 0 0 -1 467 156)"/><path d="m155.5-145v311" transform="matrix(-1 0 0 -1 477 166)"/><path d="m155.5-155v311" transform="matrix(-1 0 0 -1 513 156)"/><path d="m155.5-145v311" transform="matrix(-1 0 0 -1 523 166)"/><path d="m155.5-155v311" transform="matrix(-1 0 0 -1 559 156)"/><path d="m155.5-145v311" transform="matrix(-1 0 0 -1 569 166)"/><path d="m155.5-155v311" transform="matrix(-1 0 0 -1 605 156)"/><path d="m155.5-145v311" transform="matrix(-1 0 0 -1 615 166)"/><path d="m155.5-155v311" transform="matrix(-1 0 0 -1 651 156)"/><path d="m155.5-145v311" transform="matrix(-1 0 0 -1 661 166)"/></g><path d="m101 66h598v369h-598z" stroke="#000" stroke-width="2"/><path d="m314 141h173v3h-173z" fill="#000"/><path d="m222 141h81v3h-81z" fill="#000"/><path d="m222 151h81v3h-81z" fill="#000"/><path d="m241 161h62v3h-62z" fill="#000"/><path d="m222 325h81v3h-81z" fill="#e96d00"/><path d="m222 335h81v3h-81z" fill="#e96d00"/><path d="m241 345h62v3h-62z" fill="#e96d00"/><g fill="#000"><path d="m314 151h173v3h-173z"/><path d="m314 161h173v3h-173z"/><path d="m314 171h173v3h-173z"/><path d="m314 181h173v3h-173z"/><path d="m314 191h173v3h-173z"/><path d="m314 201h173v3h-173z"/><path d="m314 211h173v3h-173z"/><path d="m314 221h115v3h-115z"/><g><path d="m314 325h173v3h-173z"/><path d="m314 335h173v3h-173z"/><path d="m314 345h173v3h-173z"/><path d="m314 355h173v3h-173z"/><path d="m314 365h173v3h-173z"/><path d="m314 375h115v3h-115z"/></g></g></g></svg>