<svg height="360" viewBox="0 0 800 360" width="800" xmlns="http://www.w3.org/2000/svg">
    <g fill="none" fill-rule="evenodd">
        <path d="m0 0h800v360h-800z" fill="var(--diagram-background)"/>
        <g stroke="var(--diagram-border)" stroke-linecap="square">
            <path d="m0 155.5 799.666944.5"/>
            <path d="m0 95.5 799.666944.5"/>
            <path d="m0 263.5 799.666944.5"/>
        </g>
        <g fill-rule="nonzero" transform="translate(131.68 86.88)">
            <g fill="var(--diagram-text-lighter)">
                <path d="m37.68 177.12c-.24-5.76-.48-16.8-.48-24.72v-60.48c0-2.64.24-28.08.48-30l-2.16-1.2-10.08 2.88c-6.24 1.68-17.28 4.8-25.44 6.72l1.92 9.84 24.72-6.72v62.64c0 12.96 0 31.44-.72 41.04z"/>
                <path d="m135.36 0c-3.84.48-7.92.72-10.8.72-3.12 12.96-6 23.76-12.24 45.12l-37.68 132.48c-6.24 21.84-11.52 40.32-16.8 57.12l10.56-.96 9.36-34.08 47.76-167.52c3.36-12 8.88-30.24 9.84-32.88z"/>
                <path d="m236.16 166.8c-23.52.96-48.24.72-71.52.72 12-8.64 30.24-22.08 43.2-34.32 13.68-12.48 22.08-25.2 22.08-39.6 0-21.12-16.8-34.08-38.64-34.08-13.44 0-27.12 5.28-38.16 13.92l3.6 9.36c10.56-8.88 22.56-13.68 33.84-13.68 17.04 0 28.8 9.36 28.8 25.44 0 17.52-12.96 32.4-73.44 75.6l2.16 7.68c13.92-.72 29.04-.96 45.12-.96 15.6 0 28.56.24 41.52.72 0-3.84.48-6.96 1.44-10.8z"/>
            </g>
            <path d="m371.28 180c6.96-9.6 12-15.84 17.28-23.28l84.96-115.92c5.52-7.92 14.64-20.64 20.64-28.08-1.44-.72-6.24-3.12-7.68-4.08-4.56 7.2-11.04 16.32-26.64 37.68l-66.96 91.44c-8.16 11.28-12.96 17.76-28.56 37.92zm9.84-159.84v53.52c0 7.44-.24 22.08-.48 27.6h9.6c-.24-3.36-.24-12.24-.24-16.56v-58.56c0-2.16.24-14.16.24-16.08l-1.92-.72-8.16 2.64c-6.24 1.92-13.2 4.32-21.12 6.48l1.92 7.68zm85.68 84.96c8.88-7.68 17.28-11.52 26.88-11.52 12.72 0 20.4 6.72 20.4 17.04 0 8.4-4.8 16.08-17.76 28.32-8.64 8.16-20.88 18.24-36.96 31.92l1.44 6.48c9.84-.24 20.64-.48 32.16-.48 12.48 0 22.32.24 32.4.48 0-3.12.48-6 .72-9.12-16.32.48-36.24.72-53.04.72 10.32-8.64 20.64-17.28 28.8-24.72 14.4-13.68 21.6-22.08 21.6-34.56 0-15.12-12-24.48-29.28-24.48-12 0-23.04 5.28-31.44 12.72z"
                  fill="var(--diagram-text)"/>
        </g>
    </g>
</svg>