<svg height="360" viewBox="0 0 800 360" width="800" xmlns="http://www.w3.org/2000/svg">
    <g fill="none" fill-rule="evenodd">
        <path d="m0 0h800v360h-800z" fill="var(--diagram-background)"/>
        <g fill-rule="nonzero">
            <g fill="var(--diagram-text-lighter)" transform="translate(163 138.52)">
                <path d="m92.64 38.52c0 6.56-3.28 9.84-9.84 9.84-2.8 0-5.1-.6-6.9-1.8s-3.62-3.8-5.46-7.8c-2.16-4.72-4.46-7.82-6.9-9.3s-5.62-2.22-9.54-2.22c-9.68 0-17.06 4.02-22.14 12.06s-7.62 19.78-7.62 35.22c0 12.88 3.2 23.26 9.6 31.14s14.96 11.82 25.68 11.82c12.16 0 21.8-3.8 28.92-11.4l.6-.24c.72 0 1.42.46 2.1 1.38s1.02 1.94 1.02 3.06c0 1.6-2.34 4.36-7.02 8.28s-9.8 6.88-15.36 8.88-11.46 3-17.7 3c-14.32 0-26.58-5.26-36.78-15.78s-15.3-23.82-15.3-39.9c0-15.92 5.34-29.1 16.02-39.54s23.34-15.66 37.98-15.66c10.8 0 19.94 1.86 27.42 5.58s11.22 8.18 11.22 13.38z"/>
                <path d="m185.28 31.32c0 4.32-1.04 6.48-3.12 6.48l-35.76-.96v57.6c0 15.04 5.36 22.56 16.08 22.56 6.64 0 12.68-1.56 18.12-4.68.64 0 1.22.42 1.74 1.26s.78 1.74.78 2.7c0 2-2.98 4.7-8.94 8.1s-12.66 5.1-20.1 5.1c-9.12 0-16.4-2.78-21.84-8.34s-8.16-12.9-8.16-22.02v-1.08l.48-58.32c0-2.24-.96-3.36-2.88-3.36h-9.12c-1.76 0-2.64-1.04-2.64-3.12 0-1.6.72-2.8 2.16-3.6 11.12-6.56 20.8-15.8 29.04-27.72.88-1.28 2-1.92 3.36-1.92 2.24 0 3.36.64 3.36 1.92l-.96 22.92h35.28c2.08 0 3.12 2.16 3.12 6.48z"/>
            </g>
            <path d="m185.16 78.84c0 4.48-1.04 6.72-3.12 6.72l-35.76-.96v57.36c0 15.04 5.36 22.56 16.08 22.56 6.72 0 12.8-1.56 18.24-4.68.56 0 1.06.42 1.5 1.26s.66 1.74.66 2.7c0 2.24-2.92 5-8.76 8.28s-12.6 4.92-20.28 4.92c-9.04 0-16.26-2.78-21.66-8.34s-8.1-12.9-8.1-22.02v-1.08l.24-58.08c0-2.24-.88-3.36-2.64-3.36h-9.36c-1.6 0-2.4-1.12-2.4-3.36 0-1.44.76-2.6 2.28-3.48 5.76-3.36 9.7-6.48 11.82-9.36s3.18-6.4 3.18-10.56c0-14.8-3.12-26.26-9.36-34.38s-15.16-12.18-26.76-12.18c-10.32 0-18.78 3.28-25.38 9.84s-9.9 14.88-9.9 24.96c0 6.64 1.54 11.96 4.62 15.96s8.06 7.08 14.94 9.24c4.24 1.36 7.72 3.4 10.44 6.12s4.08 5.44 4.08 8.16c0 6.72-3.28 10.08-9.84 10.08-2.48 0-4.48-.56-6-1.68s-3.04-3.52-4.56-7.2c-1.92-4.56-4.04-7.58-6.36-9.06s-5.32-2.22-9-2.22c-19.84 0-29.76 15.76-29.76 47.28 0 12.96 3.4 23.32 10.2 31.08s16.12 11.64 27.96 11.64c5.76 0 11.58-1.24 17.46-3.72s10.62-5.64 14.22-9.48l.6-.24c.72 0 1.44.46 2.16 1.38s1.08 1.9 1.08 2.94c0 1.68-2.6 4.62-7.8 8.82s-10.84 7.46-16.92 9.78-12.16 3.48-18.24 3.48c-15.52 0-28.56-5.18-39.12-15.54s-15.84-23.74-15.84-40.14c0-15.92 5.3-29.06 15.9-39.42s23.3-15.54 38.1-15.54c-1.92-2-3.56-4.96-4.92-8.88s-2.04-7.72-2.04-11.4c0-13.84 4.78-25.14 14.34-33.9s21.66-13.14 36.3-13.14c14.32 0 26.08 4.9 35.28 14.7s13.8 22.34 13.8 37.62v20.04h35.28c2.08 0 3.12 2.16 3.12 6.48z"
                  fill="var(--diagram-text)" transform="translate(453 91)"/>
        </g>
    </g>
</svg>