<svg height="360" viewBox="0 0 800 360" width="800" xmlns="http://www.w3.org/2000/svg">
    <g fill="none" fill-rule="evenodd">
        <path d="m0 0h800v360h-800z" fill="var(--diagram-background)"/>
        <g fill-rule="nonzero">
            <g fill="var(--diagram-text-lighter)" transform="translate(149 90)">
                <path d="m73.8 144.6c0 9.76-3.84 17.96-11.52 24.6s-16.96 9.96-27.84 9.96c-3.84 0-9.76-.84-17.76-2.52-6-1.2-10.08-1.8-12.24-1.8-.64-5.6-2.12-14.12-4.44-25.56 0-1.2 1.16-1.8 3.48-1.8 1.92 0 3.08.64 3.48 1.92 1.84 5.92 5.48 11.08 10.92 15.48s11.04 6.6 16.8 6.6c6 0 10.66-1.64 13.98-4.92s4.98-7.88 4.98-13.8c0-3.76-1.38-7.08-4.14-9.96s-8.74-6.44-17.94-10.68c-12.08-5.52-20.06-10.72-23.94-15.6s-5.82-10.72-5.82-17.52c0-8.4 3.64-15.62 10.92-21.66s15.88-9.06 25.8-9.06c4.16 0 10 .72 17.52 2.16 4.16.8 6.88 1.2 8.16 1.2.24 9.44.76 17.48 1.56 24.12 0 1.2-1.16 1.8-3.48 1.8-2 0-3.12-.64-3.36-1.92-.88-5.84-3.08-10.58-6.6-14.22s-7.72-5.46-12.6-5.46c-12.48 0-18.72 5.44-18.72 16.32 0 3.68 1.48 7.08 4.44 10.2s9.4 7.16 19.32 12.12c11.84 5.92 19.64 11.04 23.4 15.36s5.64 9.2 5.64 14.64z"/>
                <path d="m203.28 123.24c0 14.72-5.2 27.72-15.6 39s-22.44 16.92-36.12 16.92c-7.6 0-14.96-1.6-22.08-4.8-4.88-2.24-9.2-3.36-12.96-3.36-6 0-9.96 2.56-11.88 7.68-.4.96-1.4 1.44-3 1.44-2.08 0-3.12-.64-3.12-1.92.64-6.72.96-14.8.96-24.24v-117c0-6.48-.82-10.72-2.46-12.72s-5.22-3.28-10.74-3.84c-1.28 0-1.92-.96-1.92-2.88 0-2.24.64-3.36 1.92-3.36 14.24-3.68 24.36-7.92 30.36-12.72 1.2-.96 2.2-1.44 3-1.44 2.24 0 3.36.64 3.36 1.92-1.28 17.44-1.92 31.44-1.92 42v35.88c7.52-7.52 16.72-11.28 27.6-11.28 16.24 0 29.4 4.92 39.48 14.76s15.12 23.16 15.12 39.96zm-24.12.96c0-14.72-2.92-26.24-8.76-34.56s-14.04-12.48-24.6-12.48c-5.68 0-11.22 2.14-16.62 6.42s-8.1 8.54-8.1 12.78v55.44c0 4.24 3.22 8.54 9.66 12.9s12.42 6.54 17.94 6.54c9.6 0 17.08-4.28 22.44-12.84s8.04-19.96 8.04-34.2z"/>
            </g>
            <path d="m194.28 123c0 14.8-5.22 27.82-15.66 39.06s-22.58 16.86-36.42 16.86c-7.52 0-14.8-1.56-21.84-4.68-4.96-2.16-9.28-3.24-12.96-3.24-5.92 0-9.92 2.48-12 7.44-.4.96-1.4 1.44-3 1.44-1.92 0-2.88-.64-2.88-1.92.64-6.72.96-14.8.96-24.24v-117c0-14.24-7.52-21.36-22.56-21.36-18.72 0-28.08 12-28.08 36v96.84c0 8.08.84 13.3 2.52 15.66s5.88 3.94 12.6 4.74c1.28 0 1.92 1.12 1.92 3.36s-.64 3.36-1.92 3.36c-3.28 0-7.32-.24-12.12-.72-5.28-.48-9.88-.72-13.8-.72s-8.72.24-14.4.72c-5.12.48-9.36.72-12.72.72-1.28 0-1.92-1.12-1.92-3.36s.64-3.36 1.92-3.36c6.96-.8 11.42-2.4 13.38-4.8s2.94-7.6 2.94-15.6v-57.12c0-2.24-.96-3.36-2.88-3.36h-12.24c-1.6 0-2.4-1.04-2.4-3.12 0-2 .72-3.2 2.16-3.6 10.24-2.72 15.36-4.96 15.36-6.72 0-12.16 2.96-24.1 8.88-35.82s13.74-20.9 23.46-27.54 20.38-9.96 31.98-9.96c7.36 0 13.6 1.52 18.72 4.56 2.48-1.44 4.6-2.84 6.36-4.2 1.12-.88 2.08-1.32 2.88-1.32 2.24 0 3.36.64 3.36 1.92-1.28 13.12-1.92 27.04-1.92 41.76v35.88c7.52-7.52 16.64-11.28 27.36-11.28 16.4 0 29.66 4.92 39.78 14.76s15.18 23.16 15.18 39.96zm-24.48.96c0-14.8-2.9-26.34-8.7-34.62s-14.02-12.42-24.66-12.42c-5.52 0-10.98 2.16-16.38 6.48s-8.1 8.56-8.1 12.72v55.44c0 4.32 3.2 8.64 9.6 12.96s12.4 6.48 18 6.48c9.6 0 17.04-4.24 22.32-12.72s7.92-19.92 7.92-34.32z"
                  fill="var(--diagram-text)" transform="translate(458 90)"/>
        </g>
    </g>
</svg>