<svg height="360" viewBox="0 0 800 360" width="800" xmlns="http://www.w3.org/2000/svg">
    <g fill="none" fill-rule="evenodd">
        <path d="m0 0h800v360h-800z" fill="var(--diagram-background)"/>
        <g stroke="var(--diagram-border)" stroke-linecap="square">
            <path d="m0 156.06 799.666944.5"/>
            <path d="m0 95.06 799.666944.5"/>
            <path d="m0 264.06 799.666944.5"/>
        </g>
        <g fill-rule="nonzero">
            <g fill="var(--diagram-text-lighter)" transform="translate(78 92)">
                <path d="m0 172.56h12.72c1.68-4.32 10.32-26.64 18-44.16l6.72-16.08h78.72l27.12 61.68 12-1.44c-2.16-4.32-10.8-23.28-19.2-42l-57.84-130.56-3.6.72c-4.56 12.48-10.8 26.4-21.84 52.08zm76.8-151.2 35.04 81.36h-70.08z"/>
                <path d="m201.76 175.2c17.52 0 32.64-10.56 38.4-24.96-.96 19.68 6.48 24 14.4 24 4.56 0 8.4-1.44 11.28-3.36l.72-7.92c-2.64 1.44-6 2.88-9.12 2.88-5.52 0-8.4-3.12-8.16-14.4l1.44-47.52c.72-27.84-14.16-41.52-37.44-41.52-12.72 0-24.24 3.84-35.52 10.32l2.64 9.6c8.64-5.76 20.16-10.56 31.68-10.56 19.2 0 28.8 11.28 28.32 34.32l-.24 5.76c-5.28-.48-10.56-.96-17.04-.96-39.6 0-54 16.08-54 34.56 0 16.56 11.28 29.76 32.64 29.76zm2.16-8.88c-17.04 0-24.24-10.08-24.24-21.6 0-13.2 9.6-26.16 43.2-26.16 5.28 0 11.28.24 17.04.96l-.48 10.56c-.72 20.88-16.32 36.24-35.52 36.24z"/>
            </g>
            <g fill="var(--diagram-text)" transform="translate(378.12 94.6)">
                <path d="m1.44 4.08c-.24 3.36-.72 7.92-1.44 10.8 12.96-.24 30.48-.24 47.52-.24 13.2 0 28.08 0 39.6.24l-52.8 110.64c-6.48 13.68-16.8 34.08-21.6 42.72l12.48 1.68c2.16-5.76 8.64-19.2 14.4-31.2l49.92-104.88c4.32-9.12 8.4-18.48 11.52-24.24l-3.6-5.52c-14.88.48-31.2.72-48.48.72s-33.12-.24-47.52-.72z"/>
                <path d="m113.08 130.08c0 24.48 21.6 43.2 51.6 43.2 31.44 0 53.28-20.16 53.28-46.08 0-19.92-16.08-34.8-40.8-44.4 22.08-8.16 36.72-20.64 36.72-41.04 0-22.56-19.2-41.76-46.8-41.76-28.56 0-48 19.68-48 42.72 0 20.88 16.08 33.12 35.52 40.8-25.44 8.4-41.52 22.8-41.52 46.56zm94.08-2.4c0 20.16-16.8 36.24-41.76 36.24-23.76 0-41.52-14.88-41.52-34.56 0-21.6 16.32-34.08 41.76-41.52 25.68 8.4 41.52 21.36 41.52 39.84zm-77.28-85.44c0-17.76 14.16-32.64 36.48-32.64 21.36 0 36.48 14.64 36.48 32.88 0 17.52-13.92 29.52-35.76 36-21.84-7.2-37.2-17.28-37.2-36.24z"/>
                <path d="m250.4 165.12 2.4 9.36c55.44-10.8 90.48-56.64 90.48-111.6 0-38.64-21.12-62.64-52.32-62.64-31.44 0-53.04 25.2-53.04 56.4 0 28.08 20.4 49.68 48.48 49.68 19.44 0 37.2-10.56 45.84-28.32-5.76 43.44-35.52 78-81.84 87.12zm-1.68-108.96c0-25.68 16.8-46.08 41.76-46.08 25.2 0 40.56 20.64 40.56 42.24 0 23.28-18 44.4-42.24 44.4s-40.08-17.52-40.08-40.56z"/>
            </g>
        </g>
    </g>
</svg>