<?xml version="1.0" encoding="UTF-8"?>
<svg width="800px" height="507px" viewBox="0 0 800 507" version="1.1" xmlns="http://www.w3.org/2000/svg" xmlns:xlink="http://www.w3.org/1999/xlink">
    <title>live-theming</title>
    <g id="live-theming" stroke="none" stroke-width="1" fill="none" fill-rule="evenodd">
        <rect fill="#F3F4F7" x="0" y="0" width="800" height="507"></rect>
        <rect id="Rectangle" fill="#101727" transform="translate(233.000000, 289.000000) scale(-1, 1) translate(-233.000000, -289.000000) " x="70" y="38" width="326" height="502" rx="8"></rect>
        <text id="Base-font-size" font-family="IdealSans-Medium, Ideal Sans" font-size="10" font-weight="400" fill="#6B7280">
            <tspan x="114" y="444">Base font size</tspan>
        </text>
        <text id="Background" font-family="IdealSans-Medium, Ideal Sans" font-size="10" font-weight="400" fill="#6B7280">
            <tspan x="113.5" y="196.307661">Background</tspan>
        </text>
        <text id="Label-color" font-family="IdealSans-Semibold, Ideal Sans" font-size="11" font-weight="normal" fill="#E96D00">
            <tspan x="441.5" y="329.307661">Label color</tspan>
        </text>
        <rect id="Rectangle-Copy-4" stroke="#374152" fill="#F9FAFB" transform="translate(125.000000, 218.000000) rotate(-360.000000) translate(-125.000000, -218.000000) " x="114.5" y="207.5" width="21" height="21" rx="10.5"></rect>
        <g id="Group" transform="translate(259.000000, 209.000000)">
            <rect id="Rectangle-Copy-4" fill="#E5E7EB" transform="translate(8.000000, 8.000000) rotate(-360.000000) translate(-8.000000, -8.000000) " x="0" y="0" width="16" height="16" rx="8"></rect>
            <rect id="Rectangle-Copy-5" fill="#D1D5DC" transform="translate(30.000000, 8.000000) rotate(-360.000000) translate(-30.000000, -8.000000) " x="22" y="0" width="16" height="16" rx="8"></rect>
            <rect id="Rectangle-Copy-6" fill="#9CA3AF" transform="translate(52.000000, 8.000000) rotate(-360.000000) translate(-52.000000, -8.000000) " x="44" y="0" width="16" height="16" rx="8"></rect>
            <rect id="Rectangle-Copy-10" fill="#6B7280" transform="translate(74.000000, 8.000000) rotate(-360.000000) translate(-74.000000, -8.000000) " x="66" y="0" width="16" height="16" rx="8"></rect>
        </g>
        <g id="Group-Copy" transform="translate(259.000000, 266.000000)">
            <rect id="Rectangle-Copy-4" fill="#4B5563" transform="translate(8.000000, 8.000000) rotate(-360.000000) translate(-8.000000, -8.000000) " x="0" y="0" width="16" height="16" rx="8"></rect>
            <rect id="Rectangle-Copy-5" fill="#374152" transform="translate(30.000000, 8.000000) rotate(-360.000000) translate(-30.000000, -8.000000) " x="22" y="0" width="16" height="16" rx="8"></rect>
            <rect id="Rectangle-Copy-6" fill="#202937" transform="translate(52.000000, 8.000000) rotate(-360.000000) translate(-52.000000, -8.000000) " x="44" y="0" width="16" height="16" rx="8"></rect>
            <rect id="Rectangle-Copy-10" fill="#0C111D" transform="translate(74.000000, 8.000000) rotate(-360.000000) translate(-74.000000, -8.000000) " x="66" y="0" width="16" height="16" rx="8"></rect>
        </g>
        <g id="Group-Copy-2" transform="translate(259.000000, 323.000000)">
            <rect id="Rectangle-Copy-4" fill="#EA580D" transform="translate(8.000000, 8.000000) rotate(-360.000000) translate(-8.000000, -8.000000) " x="0" y="0" width="16" height="16" rx="8"></rect>
            <rect id="Rectangle-Copy-5" fill="#C2410B" transform="translate(30.000000, 8.000000) rotate(-360.000000) translate(-30.000000, -8.000000) " x="22" y="0" width="16" height="16" rx="8"></rect>
            <rect id="Rectangle-Copy-6" fill="#9A3413" transform="translate(52.000000, 8.000000) rotate(-360.000000) translate(-52.000000, -8.000000) " x="44" y="0" width="16" height="16" rx="8"></rect>
            <rect id="Rectangle-Copy-10" fill="#7C2D13" transform="translate(74.000000, 8.000000) rotate(-360.000000) translate(-74.000000, -8.000000) " x="66" y="0" width="16" height="16" rx="8"></rect>
        </g>
        <g id="Group-4" transform="translate(100.000000, 64.000000)">
            <rect id="Rectangle-Copy-9" fill="#202937" transform="translate(23.000000, 23.000000) rotate(-360.000000) translate(-23.000000, -23.000000) " x="0" y="0" width="46" height="46" rx="4"></rect>
            <text id="Aa" font-family="IdealSans-Medium, Ideal Sans" font-size="20" font-weight="400" fill="#D1D5DC">
                <tspan x="11" y="23">Aa</tspan>
            </text>
            <g id="Group-3" transform="translate(9.000000, 29.000000)">
                <rect id="Rectangle-Copy-4" fill="#E96D00" transform="translate(24.000000, 4.000000) rotate(-360.000000) translate(-24.000000, -4.000000) " x="20" y="0" width="8" height="8" rx="4"></rect>
                <rect id="Rectangle-Copy-4" fill="#101727" transform="translate(14.000000, 4.000000) rotate(-360.000000) translate(-14.000000, -4.000000) " x="10" y="0" width="8" height="8" rx="4"></rect>
                <rect id="Rectangle-Copy-4" fill="#F9FAFB" transform="translate(4.000000, 4.000000) rotate(-360.000000) translate(-4.000000, -4.000000) " x="0" y="0" width="8" height="8" rx="4"></rect>
            </g>
        </g>
        <rect id="Rectangle" fill="#202937" x="100" y="130" width="260" height="44" rx="8"></rect>
        <g id="Group-2" transform="translate(258.000000, 458.000000)">
            <rect id="Rectangle" fill="#101727" x="0" y="3.20263591" width="83" height="8" rx="4"></rect>
            <circle id="Oval" fill="#6B7280" cx="76" cy="7" r="7"></circle>
        </g>
        <rect id="Rectangle" fill="#202937" x="100" y="378" width="260" height="44" rx="8"></rect>
        <text id="Typography" font-family="IdealSans-Medium, Ideal Sans" font-size="14" font-weight="400" fill="#D1D5DC">
            <tspan x="144" y="404">Typography</tspan>
        </text>
        <g id="translate-copy" transform="translate(115.000000, 392.000000)" stroke="#9CA3AF" stroke-linecap="round" stroke-linejoin="round" stroke-width="1.5">
            <path d="M0,1.77777778 L10.6666667,1.77777778 M5.33333333,0 L5.33333333,1.77777778 M6.26506667,10.2222222 C4.90740444,8.81582222 3.80509333,7.16133333 3.03277333,5.33333333 M8.44444444,13.3333333 L14.6666667,13.3333333 M7.11111111,16 L11.5555556,7.11111111 L16,16 M8.66764444,1.77777778 C7.8072,6.90684444 4.50639111,11.2084444 0,13.448" id="Shape"></path>
        </g>
        <g id="chevron-down" transform="translate(341.000000, 399.000000) scale(1, -1) translate(-341.000000, -399.000000) translate(337.000000, 397.000000)" stroke="#9CA3AF" stroke-linecap="round" stroke-linejoin="round" stroke-width="2">
            <polyline id="Path" points="8 0 4 4 0 0"></polyline>
        </g>
        <text id="Colors" font-family="IdealSans-Medium, Ideal Sans" font-size="14" font-weight="400" fill="#D1D5DC">
            <tspan x="144" y="156">Colors</tspan>
        </text>
        <text id="Preview" font-family="IdealSans-Medium, Ideal Sans" font-size="14" font-weight="400" fill="#9CA3AF">
            <tspan x="441" y="96.3076606">Preview</tspan>
        </text>
        <text id="Theme-editor" font-family="IdealSans-Medium, Ideal Sans" font-size="20" font-weight="400" fill="#D1D5DC">
            <tspan x="162" y="93.3076606">Theme editor</tspan>
        </text>
        <g id="color-swatch" transform="translate(115.000000, 144.000000)" stroke="#9CA3AF" stroke-linecap="round" stroke-linejoin="round" stroke-width="1.5">
            <path d="M3.55555556,16 C1.59187556,16 0,14.4080889 0,12.4444444 L0,1.77777778 C0,0.795937778 0.795937778,0 1.77777778,0 L5.33333333,0 C6.3152,0 7.11111111,0.795937778 7.11111111,1.77777778 L7.11111111,12.4444444 C7.11111111,14.4080889 5.51923556,16 3.55555556,16 Z M3.55555556,16 L14.2222222,16 C15.2040889,16 16,15.2040889 16,14.2222222 L16,10.6666667 C16,9.6848 15.2040889,8.88888889 14.2222222,8.88888889 L12.1394667,8.88888889 M7.11111111,3.86055111 L8.58391111,2.38781333 C9.27813333,1.69354667 10.4037333,1.69354667 11.0980444,2.38781333 L13.6121778,4.90197333 C14.3064889,5.59624 14.3064889,6.72186667 13.6121778,7.41608889 L6.06971556,14.9585778" id="Shape"></path>
        </g>
        <text id="Lorem-ipsum-dolor-si" font-family="IdealSans-Medium, Ideal Sans" font-size="31" font-weight="400" line-spacing="34" fill="#101727">
            <tspan x="441" y="135.12">Lorem ipsum dolor </tspan>
            <tspan x="441" y="169.12">sit amet, consectetur </tspan>
            <tspan x="441" y="203.12">adipisicing elit.</tspan>
        </text>
        <text id="Lorem-ipsum-dolor-si" font-family="IdealSans-Light, Ideal Sans" font-size="14" font-weight="300" line-spacing="21" fill="#101727">
            <tspan x="441" y="237.570758">Lorem ipsum dolor sit amet, consectetur </tspan>
            <tspan x="441" y="258.570758">adipisicing elit. Ab aliquam eos quas. Ab amet </tspan>
            <tspan x="441" y="279.570758">dicta earum enim, esse excepturi.</tspan>
        </text>
        <rect id="Rectangle" fill="#E5E7EB" x="442" y="340" width="287" height="30" rx="6"></rect>
        <text id="Label-color" font-family="IdealSans-Semibold, Ideal Sans" font-size="11" font-weight="normal" fill="#E96D00">
            <tspan x="441.5" y="401.307661">Label color</tspan>
        </text>
        <rect id="Rectangle" fill="#E5E7EB" x="442" y="412" width="287" height="30" rx="6"></rect>
        <g id="chevron-down" transform="translate(341.000000, 151.000000) scale(1, -1) translate(-341.000000, -151.000000) translate(337.000000, 149.000000)" stroke="#9CA3AF" stroke-linecap="round" stroke-linejoin="round" stroke-width="2">
            <polyline id="Path" points="8 0 4 4 0 0"></polyline>
        </g>
        <rect id="Rectangle-Copy" fill="#0C111D" x="144" y="204" width="97" height="26" rx="6"></rect>
        <text id="#F9FAFB" font-family="IdealSans-Book, Ideal Sans" font-size="12" font-weight="normal" fill="#9CA3AF">
            <tspan x="152.5" y="221.307661">#F9FAFB</tspan>
        </text>
        <text id="Text" font-family="IdealSans-Medium, Ideal Sans" font-size="10" font-weight="400" fill="#6B7280">
            <tspan x="114" y="253">Text</tspan>
        </text>
        <rect id="Rectangle-Copy-4" stroke="#374152" fill="#101727" transform="translate(125.000000, 275.000000) rotate(-360.000000) translate(-125.000000, -275.000000) " x="114.5" y="264.5" width="21" height="21" rx="10.5"></rect>
        <rect id="Rectangle-Copy" fill="#0C111D" x="144" y="261" width="97" height="26" rx="6"></rect>
        <text id="#101727" font-family="IdealSans-Book, Ideal Sans" font-size="12" font-weight="normal" fill="#9CA3AF">
            <tspan x="152.5" y="278.307661">#101727</tspan>
        </text>
        <text id="Label" font-family="IdealSans-Medium, Ideal Sans" font-size="10" font-weight="400" fill="#6B7280">
            <tspan x="113.5" y="310.307661">Label</tspan>
        </text>
        <text id="Aa" font-family="IdealSans-Medium, Ideal Sans" font-size="16" font-weight="400" fill="#D1D5DC">
            <tspan x="114" y="470">Aa</tspan>
        </text>
        <rect id="Rectangle-Copy-4" stroke="#374152" fill="#E96D00" transform="translate(125.000000, 332.000000) rotate(-360.000000) translate(-125.000000, -332.000000) " x="114.5" y="321.5" width="21" height="21" rx="10.5"></rect>
        <rect id="Rectangle-Copy" fill="#0C111D" x="144" y="318" width="97" height="26" rx="6"></rect>
        <text id="#E96D00" font-family="IdealSans-Book, Ideal Sans" font-size="12" font-weight="normal" fill="#9CA3AF">
            <tspan x="152.5" y="335.307661">#E96D00</tspan>
        </text>
        <rect id="Rectangle-Copy" fill="#0C111D" x="144" y="452" width="97" height="26" rx="6"></rect>
        <text id="16px" font-family="IdealSans-Book, Ideal Sans" font-size="12" font-weight="normal" fill="#9CA3AF">
            <tspan x="152.5" y="469.307661">16px</tspan>
        </text>
    </g>
</svg>