<?xml version="1.0" encoding="UTF-8"?>
<svg width="800px" height="507px" viewBox="0 0 800 507" version="1.1" xmlns="http://www.w3.org/2000/svg" xmlns:xlink="http://www.w3.org/1999/xlink">
    <title>live-theming</title>
    <g id="live-theming" stroke="none" stroke-width="1" fill="none" fill-rule="evenodd">
        <rect fill="#F8FAFC" x="0" y="0" width="800" height="507"></rect>
        <line x1="131" y1="262" x2="332" y2="262" id="Line" stroke="#D1D5DC"></line>
        <line x1="367" y1="399" x2="367" y2="93" id="Line" stroke="#D1D5DC"></line>
        <rect id="Rectangle" stroke="#D1D5DC" stroke-width="2" x="101" y="66" width="598" height="375" rx="8"></rect>
        <text id="Background-color" font-family="IdealSans-Medium, Ideal Sans" font-size="11" font-weight="400" fill="#6B7280">
            <tspan x="129.5" y="158.307661">Background color</tspan>
        </text>
        <text id="Background-color-Copy" font-family="IdealSans-Medium, Ideal Sans" font-size="11" font-weight="400" fill="#6B7280">
            <tspan x="130.5" y="355.307661">Background color</tspan>
        </text>
        <text id="Text-color" font-family="IdealSans-Medium, Ideal Sans" font-size="11" font-weight="400" fill="#6B7280">
            <tspan x="129.5" y="194.307661">Text color</tspan>
        </text>
        <text id="Text-color-Copy" font-family="IdealSans-Medium, Ideal Sans" font-size="11" font-weight="400" fill="#6B7280">
            <tspan x="130.5" y="391.307661">Text color</tspan>
        </text>
        <text id="Label-color" font-family="IdealSans-Medium, Ideal Sans" font-size="11" font-weight="400" fill="#6B7280">
            <tspan x="129.5" y="230.307661">Label color</tspan>
        </text>
        <text id="Label-color" font-family="IdealSans-Medium, Ideal Sans" font-size="11" font-weight="400" fill="#E96D00">
            <tspan x="400.5" y="278.307661">Label color</tspan>
        </text>
        <rect id="Rectangle-Copy-4" stroke="#D1D5DC" fill="#F9FAFB" transform="translate(317.000000, 158.000000) rotate(-360.000000) translate(-317.000000, -158.000000) " x="306.5" y="147.5" width="21" height="21" rx="4"></rect>
        <rect id="Rectangle-Copy-7" stroke="#D1D5DC" fill="#FEFBEB" transform="translate(318.000000, 355.000000) rotate(-360.000000) translate(-318.000000, -355.000000) " x="307.5" y="344.5" width="21" height="21" rx="4"></rect>
        <rect id="Rectangle-Copy-5" stroke="#D1D5DC" fill="#101727" transform="translate(317.000000, 191.000000) rotate(-360.000000) translate(-317.000000, -191.000000) " x="306.5" y="180.5" width="21" height="21" rx="4"></rect>
        <rect id="Rectangle-Copy-8" stroke="#D1D5DC" fill="#FEFBEB" transform="translate(318.000000, 388.000000) rotate(-360.000000) translate(-318.000000, -388.000000) " x="307.5" y="377.5" width="21" height="21" rx="4"></rect>
        <rect id="Rectangle-Copy-6" stroke="#D1D5DC" fill="#E96D00" transform="translate(317.000000, 227.000000) rotate(-360.000000) translate(-317.000000, -227.000000) " x="306.5" y="216.5" width="21" height="21" rx="4"></rect>
        <text id="Colors" font-family="IdealSans-Medium, Ideal Sans" font-size="13" font-weight="400" fill="#101727">
            <tspan x="158.5" y="119.307661">Colors</tspan>
        </text>
        <text id="Typography" font-family="IdealSans-Medium, Ideal Sans" font-size="13" font-weight="400" fill="#101727">
            <tspan x="162" y="305.307661">Typography</tspan>
        </text>
        <text id="Preview" font-family="IdealSans-Medium, Ideal Sans" font-size="13" font-weight="400" fill="#101727">
            <tspan x="400" y="105.307661">Preview</tspan>
        </text>
        <g id="color-swatch" transform="translate(130.000000, 104.000000)" stroke="#9CA3AF" stroke-linecap="round" stroke-linejoin="round" stroke-width="2">
            <path d="M4,18 C1.79086,18 0,16.2091 0,14 L0,2 C0,0.89543 0.89543,0 2,0 L6,0 C7.1046,0 8,0.89543 8,2 L8,14 C8,16.2091 6.20914,18 4,18 Z M4,18 L16,18 C17.1046,18 18,17.1046 18,16 L18,12 C18,10.8954 17.1046,10 16,10 L13.6569,10 M8,4.34312 L9.6569,2.68629 C10.4379,1.90524 11.7042,1.90524 12.4853,2.68629 L15.3137,5.51472 C16.0948,6.29577 16.0948,7.5621 15.3137,8.3431 L6.82843,16.8284" id="Shape"></path>
        </g>
        <g id="translate-copy" transform="translate(135.000000, 291.000000)" stroke="#9CA3AF" stroke-linecap="round" stroke-linejoin="round" stroke-width="2">
            <path d="M0,2 L12,2 M6,0 L6,2 M7.0482,11.5 C5.52083,9.9178 4.28073,8.0565 3.41187,6 M9.5,15 L16.5,15 M8,18 L13,8 L18,18 M9.7511,2 C8.7831,7.7702 5.06969,12.6095 0,15.129" id="Shape"></path>
        </g>
        <text id="Lorem-ipsum-dolor-si" font-family="IdealSans-Light, Ideal Sans" font-size="18.48" font-weight="300" line-spacing="21.12" fill="#101727">
            <tspan x="400" y="142">Lorem ipsum dolor sit amet, </tspan>
            <tspan x="400" y="163.12">consectetur adipisicing elit.</tspan>
        </text>
        <text id="Lorem-ipsum-dolor-si" font-family="IdealSans-Light, Ideal Sans" font-size="14.52" font-weight="300" line-spacing="18.48" fill="#101727">
            <tspan x="400" y="195.090758">Lorem ipsum dolor sit amet, consectetur </tspan>
            <tspan x="400" y="213.570758">adipisicing elit. Ab aliquam eos quas. Ab </tspan>
            <tspan x="400" y="232.050758">amet dicta earum enim, esse excepturi.</tspan>
        </text>
        <rect id="Rectangle" stroke="#D1D5DC" x="401.5" y="291.5" width="247" height="24" rx="6"></rect>
        <text id="Label-color" font-family="IdealSans-Medium, Ideal Sans" font-size="11" font-weight="400" fill="#E96D00">
            <tspan x="400.5" y="343.307661">Label color</tspan>
        </text>
        <rect id="Rectangle" stroke="#D1D5DC" x="401.5" y="356.5" width="247" height="24" rx="6"></rect>
    </g>
</svg>