<svg height="360" viewBox="0 0 800 360" width="800" xmlns="http://www.w3.org/2000/svg">
    <g fill="none" fill-rule="evenodd">
        <path d="m0 0h800v360h-800z" fill="var(--diagram-background)"/>
        <g stroke="var(--diagram-border)" stroke-linecap="square">
            <path d="m0 156.06 799.666944.5"/>
            <path d="m0 95.06 799.666944.5"/>
            <path d="m0 264.06 799.666944.5"/>
        </g>
        <g fill="var(--diagram-text-lighter)" fill-rule="nonzero" transform="translate(88.8 92)">
            <path d="m0 172.56h12.72c1.68-4.32 10.32-26.64 18-44.16l6.72-16.08h78.72l27.12 61.68 12-1.44c-2.16-4.32-10.8-23.28-19.2-42l-57.84-130.56-3.6.72c-4.56 12.48-10.8 26.4-21.84 52.08zm76.8-151.2 35.04 81.36h-70.08z"/>
            <path d="m201.76 175.2c17.52 0 32.64-10.56 38.4-24.96-.96 19.68 6.48 24 14.4 24 4.56 0 8.4-1.44 11.28-3.36l.72-7.92c-2.64 1.44-6 2.88-9.12 2.88-5.52 0-8.4-3.12-8.16-14.4l1.44-47.52c.72-27.84-14.16-41.52-37.44-41.52-12.72 0-24.24 3.84-35.52 10.32l2.64 9.6c8.64-5.76 20.16-10.56 31.68-10.56 19.2 0 28.8 11.28 28.32 34.32l-.24 5.76c-5.28-.48-10.56-.96-17.04-.96-39.6 0-54 16.08-54 34.56 0 16.56 11.28 29.76 32.64 29.76zm2.16-8.88c-17.04 0-24.24-10.08-24.24-21.6 0-13.2 9.6-26.16 43.2-26.16 5.28 0 11.28.24 17.04.96l-.48 10.56c-.72 20.88-16.32 36.24-35.52 36.24z"/>
        </g>
        <g fill="var(--diagram-text)" fill-rule="nonzero" transform="translate(387.72 103.72)">
            <path d="m90.96 45.12c-13.92.48-29.04.72-45.12.72s-30.72-.24-44.64-.72c0 3.12-.48 7.2-1.2 10.32 12.24-.24 28.32-.24 44.4-.24 12.48 0 25.2 0 35.76.24l-47.76 99.6c-5.76 12-15.84 31.68-20.4 39.36l10.32 5.28c1.68-4.8 8.16-18.24 13.2-28.56l47.52-98.64c3.84-8.16 7.92-17.04 11.04-22.56z"/>
            <path d="m107.32 122.64c0 23.28 20.16 40.8 47.28 40.8 28.8 0 49.2-19.2 49.2-44.16 0-18-14.88-32.88-36.72-41.28 19.44-7.68 32.4-19.2 32.4-38.64 0-21.36-17.76-39.36-42.48-39.36-25.92 0-43.92 18.48-43.92 40.32 0 19.68 14.16 31.44 31.44 38.64-22.56 7.68-37.2 21.84-37.2 43.68zm85.68-2.4c0 18.96-14.88 33.84-37.68 33.84-21.12 0-37.44-13.2-37.44-32.16 0-19.92 14.4-31.92 37.68-38.88 23.28 7.2 37.44 20.16 37.44 37.2zm-69.6-80.16c0-17.28 12.96-30.96 33.12-30.96 18.96 0 32.64 13.44 32.64 30.72 0 16.8-12.48 27.84-32.4 34.32-19.68-7.2-33.36-16.56-33.36-34.08z"/>
            <path d="m232.4 191.28 3.6 8.88c52.32-12 84.72-49.44 84.72-99.36 0-33.84-17.76-58.32-49.44-58.32-29.52 0-50.4 23.76-50.4 52.08 0 25.68 18.96 46.56 45.6 46.56 15.12 0 29.28-6.24 40.8-15.12-8.88 32.88-36.24 56.64-74.88 65.28zm36.72-59.52c-22.56 0-37.44-16.8-37.44-37.92 0-22.56 15.84-41.76 39.12-41.76 27.12 0 39.6 22.08 39.6 49.2 0 4.8-.48 9.36-.96 13.92-11.28 10.08-26.4 16.56-40.32 16.56z"/>
        </g>
    </g>
</svg>