<svg height="360" viewBox="0 0 800 360" width="800" xmlns="http://www.w3.org/2000/svg">
    <g fill="none" fill-rule="evenodd">
        <path d="m0 0h800v360h-800z" fill="var(--diagram-background)"/>
        <path d="m0 95.5 799.666944.5" stroke="var(--diagram-border)" stroke-linecap="square"/>
        <path d="m0 264.5 799.666944.5" stroke="var(--diagram-border)" stroke-linecap="square"/>
        <g fill-rule="nonzero" transform="translate(99 61)">
            <g fill="var(--diagram-text-lighter)">
                <path d="m33.84 204h13.92v-134.4l-47.76 1.44v10.32h33.84z"/>
                <path d="m126 206.64c21.36 0 46.8-7.68 46.8-36.48 0-42.24-65.52-32.64-65.52-66.96 0-12.24 9.36-22.08 26.64-22.08 14.64 0 24.48 3.6 28.56 4.8l2.64-11.28c-2.64-.72-14.4-5.04-28.56-5.04-24.72 0-42 12.24-42 34.56 0 44.16 66 33.6 66 67.92 0 14.64-15.12 23.28-35.52 23.28-12.72 0-25.44-4.08-31.92-6l-2.88 11.76c6 1.92 18.48 5.52 35.76 5.52z"/>
                <path d="m255.6 206.64c7.92 0 18-3.12 21.12-4.32l-3.36-11.76c-3.6 1.2-11.52 3.84-18.48 3.84-22.08 0-27.84-4.08-27.84-25.92v-83.04h41.04v-12.48h-41.28v-26.88h-12.72v26.88h-19.2v12.48h19.2v83.28c0 36.72 17.52 37.92 41.52 37.92z"/>
            </g>
            <path d="m416.64 204h13.92v-134.4l-47.76 1.44v10.32h33.84z" fill="var(--diagram-text)"/>
            <path d="m497.04 105.84c14.16 0 34.08-5.52 34.08-25.44 0-28.08-48.24-21.12-48.24-42.24 0-7.44 7.44-12.24 18.24-12.24 9.84 0 18.72 2.16 22.32 3.12l2.4-9.84c-2.64-.96-13.44-3.36-23.28-3.36-16.56 0-31.68 8.16-31.68 24.24 0 30.24 48.24 21.12 48.24 42 0 8.4-10.8 12.96-24.24 12.96-6.48 0-20.4-2.4-24.96-3.6l-1.92 10.56c2.4 1.2 17.52 3.84 29.04 3.84z"
                  fill="var(--diagram-text)"/>
            <path d="m587.28 105.84c5.52 0 12.96-1.92 15.12-2.64l-2.16-9.84c-1.2.24-2.64.72-4.08.96-2.64.72-5.52.96-9.12.96-13.44 0-16.8-1.92-16.8-14.88v-52.32h26.88v-10.32h-26.88v-17.76h-12v17.76h-12.72v10.32h12.72v52.56c0 25.2 12.96 25.2 29.04 25.2z"
                  fill="var(--diagram-text)"/>
        </g>
    </g>
</svg>