<svg height="360" viewBox="0 0 800 360" width="800" xmlns="http://www.w3.org/2000/svg">
    <g fill="none" fill-rule="evenodd">
        <path d="m0 0h800v360h-800z" fill="var(--diagram-background)"/>
        <g fill="var(--diagram-text)" fill-rule="nonzero" transform="translate(131 78.76)">
            <path d="m43.44.24-12.48 4.32-30.96 9.6 2.4 9.6 31.92-10.08v103.2c0 13.68 0 41.04-.48 51.36h11.52c-.24-6-.48-22.56-.48-30.72v-106.8c0-2.64.24-27.36.48-29.28z"/>
            <path d="m95.08 158.4c15.84-15.84 30.48-31.2 41.76-43.68 25.68-29.04 39.12-48.72 39.12-71.28 0-25.68-18.24-43.44-46.32-43.44-15.84 0-32.16 7.2-46.08 18.24l5.04 8.88c12.96-11.04 27.36-17.04 40.32-17.04 22.56 0 36 14.64 36 34.56 0 27.6-24.72 55.2-86.64 116.64l1.92 7.68c15.12-.72 31.68-.96 49.68-.96 18.72 0 34.8.24 50.16.72 0-3.84.48-7.44 1.2-11.04-27.36.96-59.04.72-86.16.72z"/>
            <path d="m200.96 164.88c12.96 4.8 25.44 6.96 38.64 6.96 34.32 0 58.32-18.72 58.32-46.8 0-21.84-16.08-37.68-48.24-43.2 24.24-6.24 44.64-19.92 44.64-44.64 0-20.4-18-37.2-45.84-37.2-14.64 0-30.72 5.52-44.16 15.12l4.56 9.12c11.76-8.88 26.64-14.16 38.88-14.16 22.32 0 35.52 13.2 35.52 28.56 0 21.6-23.52 36.48-61.68 42.24l1.92 7.44c39.84.24 63.36 13.92 63.36 37.44 0 22.32-19.2 36-48.48 36-12.96 0-25.92-2.88-38.88-7.68z"/>
            <path d="m391.8 168.24h11.28c-.24-6-.48-19.2-.48-27.6v-23.28c9.12 0 18 .24 25.44.48.24-4.08.48-6.24 1.44-10.32-7.92.24-17.28.48-26.88.48v-73.2c0-2.4.24-31.2.48-33.36l-7.44-.96c-1.44 2.16-15.6 20.4-17.76 23.04l-68.4 87.36 3.12 7.2c16.08-.72 38.4-.96 56.88-.96h23.04v6.48c0 14.16-.24 34.08-.72 44.64zm-68.16-60.24 68.64-87.84.24 87.84c-3.84.24-8.4.24-11.28.24-10.8 0-46.8 0-57.6-.24z"/>
            <path d="m536.08 121.2c0-30.96-23.52-48-63.36-48-3.6 0-8.88.48-12 .72l2.64-59.76c8.4 0 23.76-.24 31.68-.24 14.16 0 24.48.48 35.52.48.48-2.88.96-7.44 1.92-10.8-12.72.48-22.56.48-38.16.48-15.84 0-25.92 0-39.6-.24l-1.92 1.68c.24 8.16 0 19.2-.48 28.8l-1.2 23.52c-.24 10.08-.96 18.96-1.44 25.44l1.44 1.2c7.68-.96 13.92-1.44 18.96-1.44 33.84 0 54.96 11.76 54.96 38.64 0 24.72-20.64 40.08-48.48 40.08-12.48 0-24-2.16-34.8-6.24l1.44 10.8c10.08 3.6 21.12 5.52 33.84 5.52 33.84 0 59.04-19.68 59.04-50.64z"/>
        </g>
        <g stroke="var(--diagram-border)">
            <path d="m191 264v42h-66v-42"/>
            <path d="m319 264v42h-123v-42"/>
            <path d="m433 264v42h-109v-42"/>
            <path d="m561 264v42h-123v-42"/>
            <path d="m675 264v42h-109v-42"/>
        </g>
    </g>
</svg>