<svg height="360" viewBox="0 0 800 360" width="800" xmlns="http://www.w3.org/2000/svg">
    <g fill="none" fill-rule="evenodd">
        <path d="m0 0h800v360h-800z" fill="var(--diagram-background)"/>
        <g fill-rule="nonzero">
            <g fill="var(--diagram-text-lighter)" transform="translate(132 101)">
                <path d="m49.2 157.2c31.92 0 52.32-31.44 52.32-78.96 0-47.04-18-75.12-49.2-75.12-31.92 0-52.32 31.2-52.32 78.96 0 46.8 18 75.12 49.2 75.12zm2.16-144.72c25.92 0 39.36 25.44 39.36 67.68 0 42.48-13.68 67.68-40.32 67.68-25.92 0-39.84-25.44-39.84-67.68 0-42.48 14.4-67.68 40.8-67.68z"/>
                <path d="m215.4 154.56.96-9.36h-37.44v-145.2l-10.56.96v16.56l-40.08 5.52.24 7.68 39.84-2.88v117.36h-42v9.36z"/>
            </g>
            <g fill="var(--diagram-text)" transform="translate(451 101)">
                <path d="m49.2 157.2c31.92 0 52.32-31.44 52.32-78.96 0-47.04-18-75.12-49.2-75.12-31.92 0-52.32 31.2-52.32 78.96 0 46.8 18 75.12 49.2 75.12zm-38.64-77.04c0-42.48 14.4-67.68 40.8-67.68 20.64 0 33.12 16.08 37.68 43.68l-77.76 40.32c-.48-5.04-.72-10.56-.72-16.32zm39.84 67.68c-20.4 0-33.36-15.6-37.92-42.72l77.52-40.32c.48 4.8.72 9.84.72 15.36 0 42.48-13.68 67.68-40.32 67.68z"/>
                <path d="m215.4 154.56.96-9.36h-37.44v-145.2l-10.56.96v16.56l-40.08 5.52.24 7.68 39.84-2.88v117.36h-42v9.36z"/>
            </g>
        </g>
    </g>
</svg>