<svg height="360" viewBox="0 0 800 360" width="800" xmlns="http://www.w3.org/2000/svg">
    <g fill="none" fill-rule="evenodd">
        <path d="m0 0h800v360h-800z" fill="var(--diagram-background)"/>
        <g stroke="var(--diagram-border)" stroke-linecap="square">
            <path d="m0 99.62 799.666944.5"/>
            <path d="m0 162.62 799.666944.5"/>
            <path d="m0 264.62 799.666944.5"/>
        </g>
        <g fill-rule="nonzero" transform="translate(67.64 90)">
            <path d="m176.16 172.2c0 2.24-.64 3.36-1.92 3.36-5.52 0-11.76-.24-18.72-.72-6-.48-11.12-.72-15.36-.72-4.88 0-10.92.24-18.12.72-7.6.48-14.08.72-19.44.72-1.28 0-1.92-1.12-1.92-3.36s.48-3.36 1.44-3.36c7.12-.32 12.24-1.26 15.36-2.82s4.68-3.98 4.68-7.26c0-2.08-.8-5.4-2.4-9.96l-13.56-40.2h-49.44l-13.68 37.2c-1.76 4.96-2.64 8.8-2.64 11.52 0 7.04 6.48 10.88 19.44 11.52.96 0 1.44 1.12 1.44 3.36s-.64 3.36-1.92 3.36c-4.8 0-10.12-.24-15.96-.72-5.52-.48-10.44-.72-14.76-.72-3.44 0-7.76.24-12.96.72-5.44.48-10.08.72-13.92.72-1.2 0-1.8-1-1.8-3 0-2.24.92-3.44 2.76-3.6 6.64-.64 11.9-2.48 15.78-5.52s7.9-9.24 12.06-18.6l56.16-137.88c.48-1.28 1.6-1.92 3.36-1.92 1.92 0 3.12.6 3.6 1.8l49.56 138c2.8 7.76 6.58 13.48 11.34 17.16s11.14 6 19.14 6.96c1.6.16 2.4 1.24 2.4 3.24zm-72.6-71.28-21.12-61.32-22.8 61.32z"
                  fill="var(--diagram-text-lighter)"/>
            <path d="m298.32 123.24c0 14.72-5.2 27.72-15.6 39s-22.44 16.92-36.12 16.92c-7.6 0-14.96-1.6-22.08-4.8-4.88-2.24-9.2-3.36-12.96-3.36-6 0-9.96 2.56-11.88 7.68-.4.96-1.4 1.44-3 1.44-2.08 0-3.12-.64-3.12-1.92.64-6.72.96-14.8.96-24.24v-117c0-6.48-.82-10.72-2.46-12.72s-5.22-3.28-10.74-3.84c-1.28 0-1.92-.96-1.92-2.88 0-2.24.64-3.36 1.92-3.36 14.24-3.68 24.36-7.92 30.36-12.72 1.2-.96 2.2-1.44 3-1.44 2.24 0 3.36.64 3.36 1.92-1.28 17.44-1.92 31.44-1.92 42v35.88c7.52-7.52 16.72-11.28 27.6-11.28 16.24 0 29.4 4.92 39.48 14.76s15.12 23.16 15.12 39.96zm-24.12.96c0-14.72-2.92-26.24-8.76-34.56s-14.04-12.48-24.6-12.48c-5.68 0-11.22 2.14-16.62 6.42s-8.1 8.54-8.1 12.78v55.44c0 4.24 3.22 8.54 9.66 12.9s12.42 6.54 17.94 6.54c9.6 0 17.08-4.28 22.44-12.84s8.04-19.96 8.04-34.2z"
                  fill="var(--diagram-text-lighter)"/>
            <g fill="var(--diagram-text)">
                <path d="m543.84 172.2c0 2.24-.64 3.36-1.92 3.36-5.52 0-11.76-.24-18.72-.72-6-.48-11.12-.72-15.36-.72-4.88 0-10.92.24-18.12.72-7.6.48-14.08.72-19.44.72-1.28 0-1.92-1.12-1.92-3.36s.48-3.36 1.44-3.36c7.12-.32 12.24-1.26 15.36-2.82s4.68-3.98 4.68-7.26c0-2.08-.8-5.4-2.4-9.96l-13.56-40.2h-49.44l-13.68 37.2c-1.76 4.96-2.64 8.8-2.64 11.52 0 7.04 6.48 10.88 19.44 11.52.96 0 1.44 1.12 1.44 3.36s-.64 3.36-1.92 3.36c-4.8 0-10.12-.24-15.96-.72-5.52-.48-10.44-.72-14.76-.72-3.44 0-7.76.24-12.96.72-5.44.48-10.08.72-13.92.72-1.2 0-1.8-1-1.8-3 0-2.24.92-3.44 2.76-3.6 6.64-.64 11.9-2.48 15.78-5.52s7.9-9.24 12.06-18.6l56.16-137.88c.48-1.28 1.6-1.92 3.36-1.92 1.92 0 3.12.6 3.6 1.8l49.56 138c2.8 7.76 6.58 13.48 11.34 17.16s11.14 6 19.14 6.96c1.6.16 2.4 1.24 2.4 3.24zm-72.6-71.28-21.12-61.32-22.8 61.32z"/>
                <path d="m656.52 142.92c0 9.68-3.42 17.46-10.26 23.34s-15.9 8.82-27.18 8.82c-4.24 0-8.2-.08-11.88-.24-11.12-.48-17.4-.72-18.84-.72-5.04 0-9.6.12-13.68.36-12.24.72-18.64 1.08-19.2 1.08-.96 0-1.44-1.04-1.44-3.12 0-1.92.48-2.88 1.44-2.88 6.48-.96 11.02-2.48 13.62-4.56s3.9-6.56 3.9-13.44v-63.12c0-6.8-1.32-11.24-3.96-13.32s-7.16-3.64-13.56-4.68c-.96-.16-1.44-1.04-1.44-2.64 0-2.08.48-3.12 1.44-3.12 3.2 0 6.8.12 10.8.36 9.28.56 16.08.84 20.4.84 3.28 0 8.1-.16 14.46-.48s10.74-.48 13.14-.48c10.4 0 18.76 2.36 25.08 7.08s9.48 10.92 9.48 18.6c0 5.44-2.36 10.48-7.08 15.12s-10.52 7.68-17.4 9.12c9.76 1.84 17.56 5.26 23.4 10.26s8.76 10.94 8.76 17.82zm-30.96-52.32c0-6.56-1.52-11.32-4.56-14.28s-7.92-4.44-14.64-4.44h-2.88c-5.92 0-8.88 2.8-8.88 8.4v32.16h10.32c7.44 0 12.74-1.7 15.9-5.1s4.74-8.98 4.74-16.74zm7.68 52.32c0-7.52-1.96-13.32-5.88-17.4s-9.48-6.12-16.68-6.12h-16.08v36.48c0 4.88 1.32 8.18 3.96 9.9s6.92 2.58 12.84 2.58c6.32 0 11.54-2.24 15.66-6.72s6.18-10.72 6.18-18.72z"/>
            </g>
        </g>
    </g>
</svg>