<svg height="360" viewBox="0 0 800 360" width="800" xmlns="http://www.w3.org/2000/svg">
    <g fill="none" fill-rule="evenodd">
        <path d="m0 0h800v360h-800z" fill="var(--diagram-background)"/>
        <g stroke="var(--diagram-border)" stroke-linecap="square">
            <path d="m0 181.5 799.666944.5"/>
            <path d="m0 105.5 799.666944.5"/>
            <path d="m0 254.5 799.666944.5"/>
        </g>
        <g fill-rule="nonzero" transform="translate(120 54)">
            <g fill="var(--diagram-text-lighter)">
                <path d="m89.04 201.12.96-9.36h-37.44v-145.2l-10.56.96v16.56l-40.08 5.52.24 7.68 39.84-2.88v117.36h-42v9.36z"/>
                <path d="m210.6 30.96-113.28 209.52 9.6 2.64 112.56-208.08z"/>
                <path d="m324 201.12v-9.6h-82.56c49.68-41.28 76.8-68.16 76.8-98.88 0-24.24-18.24-42.96-83.76-42.24l-.96 10.08c58.56 0 74.4 13.92 74.4 34.08 0 27.6-27.6 53.52-78.96 97.44l.96 9.12z"/>
            </g>
            <path d="m546.24 99.12.72-8.16h-28.8v-90.96l-9.12.72v14.64l-30.96 4.56.24 6.72 30.72-2.64v66.96h-32.16v8.16zm-87.84 32.88h101.76v-7.92h-101.76zm85.92 119.52v-8.4h-56.88c34.56-24.96 53.28-41.76 53.28-60.96 0-15.6-13.68-27.84-61.44-27.36l-.72 8.16c41.52.48 53.04 8.64 53.04 21.36 0 16.56-19.68 32.64-56.4 59.28l.96 7.92z"
                  fill="var(--diagram-text)"/>
        </g>
    </g>
</svg>