<svg height="360" viewBox="0 0 800 360" width="800" xmlns="http://www.w3.org/2000/svg">
    <g fill="none" fill-rule="evenodd">
        <path d="m0 0h800v360h-800z" fill="var(--diagram-background)"/>
        <g fill-rule="nonzero">
            <path d="m171.24 18.96c0 12-3.8 25.58-11.4 40.74s-16.82 27.48-27.66 36.96-21.46 14.22-31.86 14.22c-9.76 0-16.64-5.6-20.64-16.8-13.6 11.2-24.88 16.8-33.84 16.8-7.28 0-13.02-2.4-17.22-7.2s-6.3-11.2-6.3-19.2c0-9.6 3.62-21.1 10.86-34.5s15.3-24.06 24.18-31.98c-3.2 1.28-6.24 1.92-9.12 1.92-2.48 0-5.88-.64-10.2-1.92-3.84-1.28-6.76-1.92-8.76-1.92-5.2 0-9.26.92-12.18 2.76s-4.38 4.28-4.38 7.32c0 1.44.8 3.2 2.4 5.28 2.24 2.88 3.36 5.68 3.36 8.4 0 5.44-2.8 8.16-8.4 8.16-2.8 0-5.18-1.16-7.14-3.48s-2.94-5.48-2.94-9.48c0-6.88 3.84-14.44 11.52-22.68s14.72-12.36 21.12-12.36c3.44 0 7.76.72 12.96 2.16 4.16 1.12 7.36 1.68 9.6 1.68 2.8 0 6.08-.48 9.84-1.44 1.52-.48 2.56-.72 3.12-.72 1.04 0 1.98.44 2.82 1.32s1.26 1.8 1.26 2.76c0 1.84-2.36 5.8-7.08 11.88-8.8 11.2-14.82 21.14-18.06 29.82s-4.86 17.74-4.86 27.18c0 11.04 4.64 16.56 13.92 16.56 7.44 0 14.4-2.24 20.88-6.72-.48-3.36-.72-6.96-.72-10.8 0-17.36 3.96-33.98 11.88-49.86s16.4-23.82 25.44-23.82c7.84 0 11.76 5.68 11.76 17.04 0 19.76-10.36 40.88-31.08 63.36 2.4 7.2 7.88 10.8 16.44 10.8 11.68 0 21.8-5.78 30.36-17.34s12.84-24.58 12.84-39.06c0-4.96-1.24-9.8-3.72-14.52-1.68-3.12-2.52-5.8-2.52-8.04 0-3.6 1.06-6.54 3.18-8.82s4.98-3.42 8.58-3.42c3.52 0 6.36 1.74 8.52 5.22s3.24 8.06 3.24 13.74zm-54.96 1.68c0-4.32-1.68-6.48-5.04-6.48-5.68 0-10.56 3.98-14.64 11.94s-6.12 17.98-6.12 30.06c0 5.44.56 10.4 1.68 14.88 7.44-8.64 13.32-17.44 17.64-26.4s6.48-16.96 6.48-24z"
                  fill="var(--diagram-text-lighter)" transform="translate(148 130.92)"/>
            <path d="m221.04 20.88c0 11.44-3.5 24.44-10.5 39s-15.74 26.76-26.22 36.6c-11.6 10.88-22.96 16.32-34.08 16.32-4.96 0-9.18-1.46-12.66-4.38s-6.22-7.06-8.22-12.42c-6.4 5.28-12.52 9.4-18.36 12.36s-11 4.44-15.48 4.44c-7.52 0-13.4-2.56-17.64-7.68-3.92-4.72-5.88-10.96-5.88-18.72 0-9.92 3.88-21.88 11.64-35.88 7.12-12.88 14.92-23.08 23.4-30.6-4.56 2-9.12 3.46-13.68 4.38s-10.08 1.38-16.56 1.38c-3.76 0-8.34-.86-13.74-2.58s-10.66-3.42-15.78-5.1c-6.48-1.76-12.8-2.64-18.96-2.64-5.04 0-8.86.78-11.46 2.34s-3.9 3.98-3.9 7.26c0 1.28.92 3.2 2.76 5.76s2.76 5.12 2.76 7.68c0 2.72-.72 4.8-2.16 6.24s-3.44 2.16-6 2.16c-2.48 0-4.68-.92-6.6-2.76-2.48-2.4-3.72-5.8-3.72-10.2 0-8.32 3.8-16.04 11.4-23.16s15.4-10.68 23.4-10.68c5.44 0 11.76.92 18.96 2.76 15.92 4.08 25.04 6.12 27.36 6.12 6.72 0 13.28-.52 19.68-1.56 5.68-1.2 11.36-2.44 17.04-3.72 1.04 0 1.98.42 2.82 1.26s1.26 1.78 1.26 2.82c0 1.84-2.56 6.04-7.68 12.6-6.72 8.56-11.56 15.96-14.52 22.2-5.2 10.8-7.8 22.16-7.8 34.08 0 5.36 1.22 9.46 3.66 12.3s5.94 4.26 10.5 4.26c3.68 0 7.32-.6 10.92-1.8s6.92-2.84 9.96-4.92c-.32-1.36-.56-3.04-.72-5.04s-.24-3.92-.24-5.76c0-17.2 3.94-33.74 11.82-49.62s16.42-23.82 25.62-23.82c3.68 0 6.6 1.42 8.76 4.26s3.24 7.02 3.24 12.54c0 10.08-3.04 20.92-9.12 32.52-5.36 10.32-12.8 20.6-22.32 30.84 1.2 3.52 3.24 6.2 6.12 8.04s6.36 2.76 10.44 2.76c12 0 22.36-6.04 31.08-18.12 8.24-11.44 12.36-24.2 12.36-38.28 0-4.32-.64-7.96-1.92-10.92-3.04-7.04-4.56-10.92-4.56-11.64 0-3.44 1-6.3 3-8.58s4.92-3.42 8.76-3.42c3.6 0 6.46 1.62 8.58 4.86s3.18 7.86 3.18 13.86zm-54.72 1.92c0-2.08-.42-3.72-1.26-4.92s-2.18-1.8-4.02-1.8c-5.36 0-10.08 3.64-14.16 10.92-4.48 8-6.72 18.36-6.72 31.08 0 2.4.16 5 .48 7.8s.72 5.16 1.2 7.08c7.52-8.48 13.48-17.16 17.88-26.04s6.6-16.92 6.6-24.12z"
                  fill="var(--diagram-text)" transform="translate(430 128)"/>
        </g>
    </g>
</svg>