<svg height="360" viewBox="0 0 800 360" width="800" xmlns="http://www.w3.org/2000/svg">
    <g fill="none" fill-rule="evenodd">
        <path d="m0 0h800v360h-800z" fill="var(--diagram-background)"/>
        <g fill-rule="nonzero">
            <path d="m146.64 159.36v-18.72c0-15.36.48-48.72 1.68-58.08-14.16.72-21.12.96-37.92.96-10.8 0-18-.24-32.64-.72.48 5.76.48 13.44 0 21.6 13.68-.48 20.64-.72 32.64-.72 7.44 0 5.52 0 12.72.24.48 4.32.48 10.8.48 14.4v30c-10.08 5.28-20.64 7.68-34.08 7.68-35.52 0-65.28-24.48-65.28-67.2 0-38.88 25.92-67.44 64.8-67.44 16.32 0 36.96 5.76 48.96 15.36l6.72-21.6c-13.2-8.64-35.28-15.12-53.28-15.12-52.32 0-91.44 40.32-91.44 90.72 0 48.24 37.68 86.4 86.88 86.4 29.04 0 46.32-8.88 59.76-17.76z"
                  fill="var(--diagram-text-lighter)" transform="translate(172 91)"/>
            <path d="m146.64 140.88c0-15.6 1.44-53.52 1.44-53.52h-25.2s.72 27.6.72 31.2v29.76c-10.08 5.28-20.64 7.68-34.08 7.68-35.52 0-65.28-24.48-65.28-67.2 0-38.88 25.92-67.44 64.8-67.44 16.32 0 36.96 5.76 48.96 15.36l6.72-21.6c-13.2-8.64-35.28-15.12-53.28-15.12-52.32 0-91.44 40.32-91.44 90.72 0 48.24 37.68 86.4 86.88 86.4 29.04 0 46.32-8.88 59.76-17.76z"
                  fill="var(--diagram-text)" transform="translate(479 91)"/>
        </g>
    </g>
</svg>