<svg height="360" viewBox="0 0 800 360" width="800" xmlns="http://www.w3.org/2000/svg">
    <g fill="none" fill-rule="evenodd">
        <path d="m0 0h800v360h-800z" fill="var(--diagram-background)"/>
        <path d="m0 99.6 799.666944.5" stroke="var(--diagram-border)" stroke-linecap="square"/>
        <path d="m0 224.6 799.666944.5" stroke="var(--diagram-border)" stroke-linecap="square"/>
        <g fill-rule="nonzero" transform="translate(106.16 96)">
            <path d="m102.6 109.98c-10.26 9.36-23.4 15.3-40.14 15.3-32.94 0-54-25.56-54-58.86 0-32.22 22.86-58.86 56.16-58.86 13.32 0 24.84 3.96 34.02 10.44l2.52-7.56c-9.72-6.48-22.5-10.44-36-10.44-38.34 0-65.16 30.24-65.16 68.4 0 34.38 24.3 64.44 62.1 64.44 16.02 0 29.52-5.22 40.14-13.32z"
                  fill="var(--diagram-text-lighter)"/>
            <path d="m124.56 112.68c6.66-5.76 12.96-8.64 20.16-8.64 9.54 0 15.3 5.04 15.3 12.78 0 6.3-3.6 12.06-13.32 21.24-6.48 6.12-15.66 13.68-27.72 23.94l1.08 4.86c7.38-.18 15.48-.36 24.12-.36 9.36 0 16.74.18 24.3.36 0-2.34.36-4.5.54-6.84-12.24.36-27.18.54-39.78.54 7.74-6.48 15.48-12.96 21.6-18.54 10.8-10.26 16.2-16.56 16.2-25.92 0-11.34-9-18.36-21.96-18.36-9 0-17.28 3.96-23.58 9.54z"
                  fill="var(--diagram-text)"/>
            <path d="m295.38 129.6c-.18-5.04-.18-19.08-.18-25.92v-74.88c0-7.02 0-21.24.18-26.46-2.52.54-6.12.72-9 .72.36 8.64.54 31.86.54 43.38v13.68h-79.56v-31.32c0-7.02 0-21.24.18-26.46-2.52.54-6.12.72-9 .72.36 8.64.54 31.86.54 43.38v39.78c0 11.7-.18 34.74-.54 43.38h9c-.18-5.04-.18-19.08-.18-25.92v-36.36h79.56v18.9c0 11.7-.18 34.74-.54 43.38z"
                  fill="var(--diagram-text-lighter)"/>
            <path d="m325.62 165.06c6.48 1.98 12.78 3.06 19.44 3.06 16.2 0 27.9-8.1 27.9-19.26 0-9.36-8.1-15.66-23.94-17.46 14.22-3.24 22.5-9.18 22.5-18s-8.64-15.48-22.5-15.48c-9 0-16.92 2.88-23.22 6.3l2.16 5.4c5.94-3.42 13.14-5.58 20.52-5.58 10.44 0 16.02 4.5 16.02 10.08 0 7.38-8.28 13.32-27.9 16.2l1.08 4.5c18 .54 28.26 5.04 28.26 14.04 0 7.56-8.46 13.14-21.42 13.14-7.2 0-13.68-1.44-19.8-3.6z"
                  fill="var(--diagram-text)"/>
            <path d="m455.4 125.64c-31.32 0-52.92-25.38-52.92-57.42 0-33.48 22.68-61.02 55.62-61.02 31.32 0 52.92 25.2 52.92 57.42 0 33.48-22.5 61.02-55.62 61.02zm-.36 7.2c37.98 0 64.44-30.78 64.44-69.66 0-34.02-24.66-63.18-60.84-63.18-38.16 0-64.62 30.78-64.62 69.66 0 33.84 24.84 63.18 61.02 63.18z"
                  fill="var(--diagram-text-lighter)"/>
            <path d="m544.14 112.68c6.66-5.76 12.96-8.64 20.16-8.64 9.54 0 15.3 5.04 15.3 12.78 0 6.3-3.6 12.06-13.32 21.24-6.48 6.12-15.66 13.68-27.72 23.94l1.08 4.86c7.38-.18 15.48-.36 24.12-.36 9.36 0 16.74.18 24.3.36 0-2.34.36-4.5.54-6.84-12.24.36-27.18.54-39.78.54 7.74-6.48 15.48-12.96 21.6-18.54 10.8-10.26 16.2-16.56 16.2-25.92 0-11.34-9-18.36-21.96-18.36-9 0-17.28 3.96-23.58 9.54z"
                  fill="var(--diagram-text)"/>
        </g>
    </g>
</svg>