<svg height="360" viewBox="0 0 800 360" width="800" xmlns="http://www.w3.org/2000/svg">
    <g fill="none" fill-rule="evenodd">
        <path d="m0 0h800v360h-800z" fill="var(--diagram-background)"/>
        <path d="m0 108.3 799.666944.5" stroke="var(--diagram-border)" stroke-linecap="square"/>
        <path d="m0 233.3 799.666944.5" stroke="var(--diagram-border)" stroke-linecap="square"/>
        <g fill-rule="nonzero" transform="translate(149.58 84)">
            <g fill="var(--diagram-text-lighter)">
                <path d="m46.62 21.78c-1.98-.9-4.14-1.44-7.74-1.44-16.2 0-24.66 13.32-24.66 35.64v13.5h-11.88l-2.34 6.84h14.22v43.74c0 10.44-.18 22.5-.72 30.24h8.82c-.36-4.68-.36-11.88-.36-18.18v-55.8h23.76c0-2.7.18-5.04.54-6.84h-24.3v-14.22c0-17.46 5.58-27.54 17.64-27.54 2.88 0 5.4.72 7.74 1.62z"/>
                <path d="m114.48 191.16 3.42-5.4c-25.92-13.5-49.5-43.02-49.5-79.74s23.04-66.24 49.5-80.1l-3.42-5.58c-29.34 15.48-53.82 47.7-53.82 86.04 0 38.16 25.2 69.84 53.82 84.78z"/>
                <path d="m131.04 68.76-8.46 1.26c1.8 2.7 20.52 27.72 22.68 31.32l5.4 7.38-33.12 41.58h9.36c1.08-1.62 22.32-29.34 28.26-36.72l27 38.16 8.28-1.8c-1.8-2.7-19.08-25.92-21.24-29.34l-9.18-12.42 30.24-39.06c-2.52.18-6.12.36-9.18.18l-25.56 33.84z"/>
                <path d="m195.84 191.16c28.98-14.94 54-46.98 54-85.32 0-38.16-24.66-70.2-54-85.5l-3.24 5.58c26.28 13.68 49.5 43.2 49.5 80.1 0 36.54-23.58 66.06-49.5 79.56z"/>
                <path d="m342.36 84.24c-10.08.36-21.78.54-31.86.54-13.14 0-22.68-.36-31.5-.54 0 1.98-.18 5.4-.54 7.2 7.74 0 15.12-.18 24.84-.18h12.6c8.64 0 17.1.18 25.74.18.18-2.34.36-5.22.72-7.2zm0 29.16c-10.08.36-21.78.54-31.86.54-13.14 0-22.68-.18-31.5-.54 0 2.16-.18 5.58-.54 7.2 7.74 0 15.12-.18 24.84-.18h12.6c8.64 0 17.1.18 25.74.18.18-2.16.36-5.22.72-7.2z"/>
                <path d="m430.38 69.12c-10.44.36-20.88.54-32.58.54-11.16 0-20.34-.18-29.7-.54 0 2.88-.36 4.86-.72 7.38 17.28-.36 34.02-.18 51.66-.18l-56.7 72.36 1.62 2.16c10.26-.54 21.06-.72 33.12-.72s22.32.18 32.4.54c0-2.7.36-5.04 1.08-7.74-18.18.54-38.88.36-55.44.36l56.7-72.18z"/>
            </g>
            <path d="m450.36 14.94c6.66-5.76 12.96-8.64 20.16-8.64 9.54 0 15.3 5.04 15.3 12.78 0 6.3-3.6 12.06-13.32 21.24-6.48 6.12-15.66 13.68-27.72 23.94l1.08 4.86c7.38-.18 15.48-.36 24.12-.36 9.36 0 16.74.18 24.3.36 0-2.34.36-4.5.54-6.84-12.24.36-27.18.54-39.78.54 7.74-6.48 15.48-12.96 21.6-18.54 10.8-10.26 16.2-16.56 16.2-25.92 0-11.34-9-18.36-21.96-18.36-9 0-17.28 3.96-23.58 9.54z"
                  fill="var(--diagram-text)"/>
        </g>
    </g>
</svg>