<svg height="360" viewBox="0 0 800 360" width="800" xmlns="http://www.w3.org/2000/svg">
    <g fill="none" fill-rule="evenodd">
        <path d="m0 0h800v360h-800z" fill="var(--diagram-background)"/>
        <g fill="var(--diagram-text)" fill-rule="nonzero" transform="translate(93.76 78.76)">
            <path d="m107.76 157.92c-7.92.48-18.96.72-27.6.72h-18.72v-21.12-106.8c0-2.64.24-27.36.48-29.28l-1.92-1.2-12.48 4.32c-8.88 2.64-35.04 12.48-46.8 15.84l2.16 9.84 48-16.56v103.2c0 10.56 0 29.04-.24 41.76h-23.04c-11.28 0-16.8-.24-27.6-.72.48 3.12.72 7.44.96 10.8 12.96-.24 23.04-.48 36.72-.48h30.24c13.92 0 28.56 0 39.6.48.24-2.64.24-8.64.24-10.8z"/>
            <path d="m138.04 158.4c19.44-17.52 36.72-33.84 49.2-46.56 28.32-29.04 40.56-46.56 40.56-68.4 0-26.64-20.16-43.44-49.44-43.44-19.68 0-36.48 9.12-52.08 23.28l4.8 8.88c15.12-14.16 29.52-22.08 46.8-22.08 23.76 0 38.88 13.68 38.88 34.56 0 26.88-24.24 52.56-95.52 116.64l1.92 7.68c16.56-.72 34.56-.96 53.76-.96 20.64 0 38.16.24 54.72.72 0-3.84.72-7.44 1.2-11.04-30 .96-64.8.72-94.8.72z"/>
            <path d="m253.52 164.16c14.16 5.28 26.88 7.68 44.4 7.68 37.2 0 63.36-19.68 63.36-46.8 0-23.28-20.64-39.12-56.88-42.72 33.36-6.72 53.28-23.04 53.28-45.12 0-20.64-19.92-37.2-50.16-37.2-19.92 0-37.2 7.2-51.12 16.56l4.56 8.88c13.2-9.12 28.08-15.36 45.84-15.36 24.96 0 39.84 12.48 39.84 28.08 0 19.2-19.2 34.56-65.52 42.48l1.68 7.92c41.28.72 67.2 13.2 67.2 37.2 0 20.88-20.4 36-52.56 36-18.72 0-31.44-3.12-45.36-8.64z"/>
            <path d="m459.24 168.24h11.28c-.24-6-.48-19.2-.48-27.6v-15.84c10.08 0 19.68.24 28.56.48.24-4.08.48-6 1.44-10.32-9.6.24-19.2.48-30 .48v-80.64c0-2.4.24-31.2.48-33.36l-7.68-.96c-1.44 2.16-15.6 21.36-17.52 23.76l-69.12 94.32 2.88 6.96c17.28-.72 40.56-.72 60.48-.72h20.4v7.2c0 11.52 0 27.84-.72 36.24zm-7.92-52.56c-12.24 0-49.44 0-61.44-.24l70.08-95.76v95.76c-2.88.24-6 .24-8.64.24z"/>
            <path d="m513.52 164.64c12 4.56 25.2 7.2 41.04 7.2 36.96 0 64.8-19.68 64.8-50.64s-25.44-48-69.12-48c-5.76 0-14.16.96-19.44 1.68l2.88-60.72c10.32 0 28.8-.24 38.64-.24 17.28 0 30 .48 43.44.48 0-2.88.96-7.44 1.68-10.8-15.12.48-27.12.48-45.6.48-18.72 0-30.96 0-47.04-.24l-1.92 1.68c0 8.16 0 19.2-.48 28.8l-.96 23.52c-.48 10.56-1.44 19.68-1.68 26.4l1.44 1.2c10.56-1.68 19.2-2.4 25.92-2.4 37.68 0 61.44 11.76 61.44 38.64 0 24.72-23.76 40.08-54.48 40.08-15.12 0-29.04-2.88-42-7.92z"/>
        </g>
        <g stroke="var(--diagram-border)">
            <path d="m202 264v42h-126v-42"/>
            <path d="m333 264v42h-126v-42"/>
            <path d="m464 264v42h-126v-42"/>
            <path d="m595 264v42h-126v-42"/>
            <path d="m726 264v42h-126v-42"/>
        </g>
    </g>
</svg>