<svg height="360" viewBox="0 0 800 360" width="800" xmlns="http://www.w3.org/2000/svg">
    <g fill="none" fill-rule="evenodd">
        <path d="m0 0h800v360h-800z" fill="var(--diagram-background)"/>
        <g stroke="var(--diagram-border)" stroke-linecap="square">
            <path d="m0 160.9 799.666944.5"/>
            <path d="m0 101.347399 799.666944.5"/>
            <path d="m0 265.347399 799.666944.5"/>
        </g>
        <g fill-rule="nonzero" transform="translate(97.954016 90)">
            <path d="m176.205984 172.927399c0-1.92-1.44-3.12-2.4-3.36-19.2-2.16-26.16-11.76-30.48-24l-49.9199996-138.00000004c-.24-.96-1.44-1.92-3.36-1.92-1.68 0-2.88.72-3.36 1.92l-56.16 138.00000004c-6.24 14.16-11.04 22.56-27.83999999 24-.96.24-2.64 1.44-2.64 3.36-.24 1.92.48 3.36 1.68 3.36 11.27999999 0 16.31999999-1.44 26.87999999-1.44 13.2 0 16.56 1.44 30.72 1.44.96 0 1.92-1.44 1.92-3.36s-.48-3.36-1.44-3.36c-15.12-.72-19.44-5.04-19.44-11.52 0-3.36 1.2-7.44 2.64-11.52l13.68-37.2h49.4399996l13.92 40.08c1.2 3.84 2.16 7.2 2.16 10.08 0 6-4.56 9.36-20.16 10.08-.96 0-1.44 1.44-1.44 3.36s.96 3.36 1.92 3.36c15.84 0 22.8-1.44 37.68-1.44 13.2 0 18.24 1.44 34.08 1.44.96 0 1.92-1.44 1.92-3.36zm-72.72-71.28h-43.9199996l22.8-61.44z"
                  fill="var(--diagram-text-lighter)"/>
            <path d="m285.165984 165.727399c0-2.88-2.4-5.04-3.6-4.08-2.88 2.64-6 4.8-9.36 4.8-3.6 0-8.4-1.92-8.16-13.44l1.68-54.24c.72-19.92-12.96-29.76-29.04-29.76-18.48 0-48 16.8-48 29.52 0 5.28 3.84 8.4 8.64 8.4 7.68 0 14.16-5.04 14.4-16.32.24-7.44 8.4-12 17.04-12 9.12 0 15.84 6.96 15.6 19.44l-.72 18.72c-15.6 4.08-58.32 15.84-58.32 39.84 0 12.48 9.36 23.28 24.48 23.28 13.68 0 25.68-5.04 33.6-13.2 2.4 7.44 9.6 12.24 18.48 12.24 9.36 0 16.8-4.56 22.32-11.04.72-.72.72-1.2.96-2.16zm-41.76-40.8-.96 32.16c-3.12 6.72-13.2 11.04-20.88 11.04-8.4 0-13.2-6.24-13.2-17.04 0-15.12 17.04-22.08 35.04-26.16z"
                  fill="var(--diagram-text-lighter)"/>
            <g fill="var(--diagram-text)">
                <path d="m504.045984 175.807399c1.44 0 1.92-2.64-.24-3.12-5.76-1.44-14.16-2.16-17.28-3.84-6.48-3.84-12.72-19.2-65.04-167.76000004-.48-1.2-6.24-1.68-6.96 0-33.36 91.68000004-56.16 152.88000004-63.36 162.72000004-3.6 5.04-6.48 7.44-18.72 8.88-1.92.24-1.44 3.12-.24 3.12 6.48-.72 12-.96 24.72-.96 12.96 0 15.36.24 22.08.96 1.2 0 1.68-2.88-.48-3.12-13.68-2.16-15.6-4.32-15.6-8.64 0-4.8 8.16-29.04 19.44-59.76 6-.24 16.8-.48 37.2-.48h19.2c4.08 11.52 8.16 23.04 12 33.6 9.84 28.08 7.92 30.72 4.8 32.64-3.12 1.68-11.28 1.2-17.04 2.64-1.92.48-1.68 3.12-.24 3.12 6.48-.72 24.48-.96 37.44-.96 12.72 0 21.84.24 28.32.96zm-67.44-77.28c-4.8 0-10.32 0-17.04 0-18 0-28.56 0-35.04-.24 7.68-21.6 16.8-45.6 25.44-68.4.24-.72 1.2-.96 1.44 0 7.68 20.4 16.56 44.64 25.2 68.64z"/>
                <path d="m602.205984 166.207399c.48-.72-.72-1.92-1.68-1.2-2.88 2.4-4.56 3.12-8.64 3.12-5.04 0-7.92-4.32-7.92-10.8 0-18.24 2.16-37.44 2.16-55.92 0-20.16-10.8-30-30-30-18.72 0-40.56 17.52-41.04 29.76-.24 4.8 2.88 7.92 7.68 7.92 6.72 0 10.56-3.36 11.28-14.4.72-10.8 6.72-18 16.56-18 12.24 0 18.24 6.72 18.24 24.72v12.48c-.24 3.6-.48 4.56-2.64 5.28-34.08 11.76-55.2 18.48-55.2 39.36 0 10.32 10.56 19.44 22.56 19.44 13.44 0 24.48-7.44 31.68-13.68.72-.72 1.68-.48 2.16.24 2.64 6.72 6.96 13.2 14.4 13.2 8.4 0 17.76-6 20.4-11.52zm-34.08-41.28c0 5.76-.48 23.52-1.44 30.96-.24 2.64-11.28 12.24-22.56 12.24-10.08 0-15.6-4.32-15.6-15.6 0-13.44 12.72-21.84 37.68-29.04 1.2-.24 1.92.48 1.92 1.44z"/>
            </g>
        </g>
    </g>
</svg>