<svg height="360" viewBox="0 0 800 360" width="800" xmlns="http://www.w3.org/2000/svg">
    <g fill="none" fill-rule="evenodd">
        <path d="m0 0h800v360h-800z" fill="var(--diagram-background)"/>
        <g stroke="var(--diagram-border)" stroke-linecap="square">
            <path d="m0 101.9 799.666944.5"/>
            <path d="m0 256.9 799.666944.5"/>
            <path d="m0 160.9 799.666944.5"/>
        </g>
        <g fill-rule="nonzero" transform="translate(111.12 99)">
            <path d="m100.08 101.28h-52.32l26.64-70.8zm38.16 49.68-54.24-148.32c-.72-1.68-1.44-2.64-4.08-2.64-2.88 0-3.6.72-4.32 2.64l-56.4 148.32h-1.44c-10.8 0-11.76-.24-14.16-.24-1.68 0-3.6 1.68-3.6 4.32s1.92 4.08 3.6 4.08c2.4 0 3.36-1.2 20.4-1.2h1.2c16.8 0 17.76 1.2 20.16 1.2 1.68 0 3.6-1.44 3.6-4.08s-1.92-4.32-3.6-4.32c-2.4 0-3.36.24-14.88.24h-1.68l15.6-41.04h58.8l14.88 41.04c-11.04 0-13.44-.24-15.84-.24-1.68 0-3.6 1.68-3.6 4.32s1.92 4.08 3.6 4.08c2.4 0 4.8-1.2 24.48-1.2h2.88c19.68 0 22.08 1.2 24.48 1.2 1.92 0 3.6-1.44 3.6-4.08s-1.68-4.32-3.6-4.32c-2.4 0-4.8.24-15.84.24z"
                  fill="var(--diagram-text-lighter)"/>
            <path d="m211.68 139.44c-11.04 9.84-18.24 11.52-23.28 11.52-6.96 0-12.96-5.76-12.96-14.64 0-14.16 10.08-22.08 36.24-22.08zm-30.96-66c1.92-2.64 6.72-5.76 15.36-5.76 9.84 0 15.6 4.56 15.6 16.08v23.52c-27.6 0-54.24 9.36-54.24 32.16 0 14.4 10.56 22.08 23.28 22.08 9.36 0 19.92-3.84 31.44-14.4 1.44 8.16 6.96 13.92 15.12 13.92 5.04 0 9.84-.48 16.32-5.52 1.44-1.2 2.64-4.32 1.2-6-1.92-1.68-3.84-1.92-5.52-.48-2.64 2.16-2.88 5.04-6 5.04s-4.56-1.92-4.56-8.64v-52.56c0-22.8-12.24-32.4-32.64-32.4-14.4 0-30.72 9.6-30.72 21.12 0 5.52 4.08 10.08 9.84 10.08 5.52 0 9.84-4.56 9.84-10.08 0-3.6-1.68-6.48-4.32-8.16z"
                  fill="var(--diagram-text-lighter)"/>
            <g fill="var(--diagram-text)">
                <path d="m327.36 110.16h50.88l14.64 40.8h-1.68c-8.64 0-14.16-.24-18.48-.24-1.68 0-3.36 1.68-3.36 4.32s1.68 4.08 3.36 4.08c4.56 0 10.08-1.2 32.4-1.2h1.2c22.8 0 27.84 1.2 32.4 1.2 1.92 0 3.6-1.44 3.6-4.08s-1.68-4.32-3.6-4.32c-4.08 0-6.72.24-18.48.24h-.72l-54-148.32c-.48-1.68-1.44-2.64-4.08-2.64s-3.36.72-4.08 2.64l-54.48 148.32c-16.08 0-19.44-.24-23.76-.24-1.92 0-3.36 1.68-3.36 4.32s1.44 4.08 3.36 4.08c4.56 0 6.96-1.2 28.32-1.2h1.2c21.36 0 24 1.2 28.56 1.2 1.68 0 3.6-1.44 3.6-4.08s-1.92-4.32-3.6-4.32c-4.08 0-7.68.24-24.96.24zm47.28-8.88h-44.16l22.32-60.48z"/>
                <path d="m518.64 130.8c-16.08 17.28-25.68 17.28-32.88 17.28-9.12 0-18.48-6.24-18.48-24 0-29.28 26.88-39.12 51.36-39.12zm-44.64-111.12c2.64-4.8 10.56-9.12 22.8-9.12 14.4 0 21.84 8.4 21.84 25.2v41.52c-31.68 0-77.52 11.76-77.52 51.12 0 21.36 16.08 33.12 33.36 33.12 13.68 0 27.84-5.52 44.88-20.64 2.16 12 10.08 20.16 22.32 20.16 5.52 0 15.36-.72 23.76-9.36 1.2-1.2 2.4-3.36 2.4-5.28 0-2.64-2.4-4.56-5.28-4.56-.96 0-1.68.48-2.4 1.44-3.12 2.64-4.56 9.6-10.56 9.6-3.84 0-6-2.4-6-11.28v-92.4c0-33.12-17.04-47.52-46.8-47.52-20.88 0-44.16 14.4-44.16 30.96 0 8.16 6.24 14.64 14.4 14.64 7.92 0 14.4-6.48 14.4-14.64 0-5.28-2.88-10.56-7.44-12.96z"/>
            </g>
        </g>
    </g>
</svg>